<svg width="35" height="46" viewBox="0 0 35 46" fill="none" xmlns="http://www.w3.org/2000/svg">
<path d="M26.3031 22.721V0.515017C26.3029 0.438038 26.2854 0.36209 26.2519 0.29278C26.2184 0.223471 26.1698 0.16257 26.1096 0.114575C26.0494 0.0665801 25.9792 0.0327166 25.9042 0.0154848C25.8292 -0.00174701 25.7512 -0.00190691 25.6761 0.0150169L17.9351 1.74502C17.8217 1.77081 17.7204 1.8343 17.6478 1.92512C17.5751 2.01594 17.5354 2.12871 17.5351 2.24502V22.721H9.74112V4.66802C9.74088 4.59114 9.72339 4.5153 9.68995 4.44608C9.65651 4.37686 9.60797 4.31602 9.5479 4.26805C9.48784 4.22007 9.41778 4.18618 9.34288 4.16887C9.26798 4.15156 9.19015 4.15127 9.11512 4.16802L1.37412 5.90002C1.26072 5.92581 1.15941 5.9893 1.08675 6.08012C1.0141 6.17094 0.974392 6.28371 0.974121 6.40002V20.569C0.974121 21.14 1.20096 21.6877 1.60472 22.0914C2.00849 22.4952 2.55611 22.722 3.12712 22.722H9.25612V45.048C9.25637 45.1249 9.27385 45.2007 9.30729 45.2699C9.34073 45.3392 9.38927 45.4 9.44934 45.448C9.5094 45.496 9.57947 45.5299 9.65437 45.5472C9.72927 45.5645 9.8071 45.5648 9.88212 45.548L17.6231 43.816C17.7365 43.7902 17.8378 43.7267 17.9105 43.6359C17.9831 43.5451 18.0229 43.4323 18.0231 43.316V22.721H25.8161V40.775C25.8164 40.8519 25.8339 40.9277 25.8673 40.9969C25.9007 41.0662 25.9493 41.127 26.0093 41.175C26.0694 41.223 26.1395 41.2569 26.2144 41.2742C26.2893 41.2915 26.3671 41.2918 26.4421 41.275L34.1831 39.543C34.2965 39.5172 34.3978 39.4537 34.4705 39.3629C34.5431 39.2721 34.5828 39.1593 34.5831 39.043V24.874C34.5831 24.303 34.3563 23.7554 33.9525 23.3516C33.5488 22.9478 33.0011 22.721 32.4301 22.721H26.3031Z" fill="url(#paint0_linear_106_35)"/>
<defs>
<linearGradient id="paint0_linear_106_35" x1="17.7786" y1="45.5604" x2="17.7786" y2="0.00244141" gradientUnits="userSpaceOnUse">
<stop offset="0.501" stop-color="#099A5D"/>
<stop offset="0.502" stop-color="#00BF54"/>
</linearGradient>
</defs>
</svg>
