<svg width="26" height="35" viewBox="0 0 26 35" fill="none" xmlns="http://www.w3.org/2000/svg">
<path d="M18.925 17.216V0.564436C18.925 0.506634 18.9121 0.449562 18.8872 0.397445C18.8623 0.345328 18.8261 0.299502 18.7811 0.263358C18.7362 0.227214 18.6837 0.201678 18.6276 0.188642C18.5715 0.175605 18.5132 0.175401 18.457 0.188046L12.674 1.48283C12.5888 1.502 12.5127 1.54972 12.4581 1.61815C12.4036 1.68657 12.3739 1.7716 12.374 1.85922V17.216H6.551V3.67794C6.55104 3.62014 6.53814 3.56306 6.51323 3.51095C6.48832 3.45883 6.45206 3.413 6.40712 3.37686C6.36218 3.34072 6.30971 3.31518 6.25361 3.30214C6.1975 3.28911 6.13919 3.2889 6.083 3.30155L0.3 4.60135C0.214816 4.62052 0.138681 4.66825 0.0841464 4.73667C0.0296115 4.80509 -6.81058e-05 4.89012 1.17354e-07 4.97774V15.602C1.17354e-07 16.03 0.169414 16.4406 0.470972 16.7432C0.772531 17.0459 1.18153 17.216 1.608 17.216H6.187V33.9578C6.18695 34.0156 6.19986 34.0727 6.22477 34.1248C6.24968 34.1769 6.28594 34.2227 6.33088 34.2589C6.37582 34.295 6.42829 34.3206 6.48439 34.3336C6.5405 34.3466 6.59881 34.3468 6.655 34.3342L12.438 33.0354C12.5232 33.0162 12.5993 32.9685 12.6539 32.9001C12.7084 32.8317 12.7381 32.7466 12.738 32.659V17.216H18.56V30.753C18.56 30.8108 18.5729 30.8678 18.5978 30.92C18.6227 30.9721 18.6589 31.0179 18.7039 31.054C18.7488 31.0902 18.8013 31.1157 18.8574 31.1288C18.9135 31.1418 18.9718 31.142 19.028 31.1294L24.811 29.8306C24.8962 29.8114 24.9723 29.7637 25.0269 29.6952C25.0814 29.6268 25.1111 29.5418 25.111 29.4542V18.8299C25.111 18.6177 25.0693 18.4076 24.9883 18.2116C24.9073 18.0156 24.7886 17.8375 24.639 17.6876C24.4893 17.5377 24.3117 17.4189 24.1163 17.3379C23.9208 17.257 23.7114 17.2156 23.5 17.216H18.925Z" fill="url(#paint0_linear_5618_987)"/>
<defs>
<linearGradient id="paint0_linear_5618_987" x1="12.5555" y1="34.3435" x2="12.5555" y2="0.178711" gradientUnits="userSpaceOnUse">
<stop offset="0.501" stop-color="#099A5D"/>
<stop offset="0.502" stop-color="#00BF54"/>
</linearGradient>
</defs>
</svg>
