<svg width="60" height="60" viewBox="0 0 60 60" fill="none" xmlns="http://www.w3.org/2000/svg">
<path d="M59.006 32.529C58.8407 33.2037 58.7356 33.8918 58.692 34.585C56.584 46.28 49.975 54.312 38.792 58.215C34.7874 59.6261 30.5178 60.1238 26.296 59.6715C22.0741 59.2192 18.0069 57.8284 14.392 55.601C14.3 55.551 14.2126 55.4928 14.131 55.427C15.211 54.347 16.274 53.301 17.32 52.221C17.564 51.977 17.738 52.221 17.93 52.221C19.9245 53.3635 22.0827 54.1929 24.329 54.68C28.8434 55.6764 33.548 55.3699 37.8948 53.796C42.2417 52.2221 46.052 49.4457 48.882 45.79C51.9578 42.1246 53.8417 37.6077 54.282 32.843C54.8298 27.9771 53.9009 23.0589 51.616 18.728C51.407 18.328 51.372 18.101 51.738 17.752C52.749 16.811 53.69 15.8 54.7 14.79C55.8749 16.6757 56.8225 18.6937 57.523 20.802C58.2821 23.0575 58.7561 25.399 58.934 27.772C58.934 27.872 58.934 28.016 59.034 28.072L59.006 32.529Z" fill="#8490A1"/>
<path d="M31.3 0.658203C31.1032 0.748833 30.8892 0.795763 30.6725 0.795763C30.4559 0.795763 30.2418 0.748833 30.045 0.658203H31.3Z" fill="#8490A1"/>
<path d="M58.536 3.6202C57.665 2.8012 56.793 1.8772 56.009 1.0932C55.73 0.814203 55.591 0.793203 55.295 1.0932C53.221 3.2022 51.113 5.2752 49.039 7.3842C48.725 7.6982 48.569 7.6842 48.255 7.3842C44.1195 3.9335 39.1056 1.70128 33.774 0.937203C33.0522 0.914911 32.3344 0.821458 31.631 0.658203H31.282C30.8682 0.74523 30.4408 0.74523 30.027 0.658203H27.151C27.151 0.780203 27.012 0.758203 26.907 0.758203C25.5639 0.8642 24.2304 1.06807 22.917 1.3682C15.7372 3.03711 9.43745 7.32284 5.2485 13.3882C1.05955 19.4535 -0.717672 26.8626 0.264015 34.1682C0.948107 39.6366 3.20631 44.7884 6.76402 48.9972C6.82374 49.0474 6.87177 49.1101 6.90471 49.1808C6.93766 49.2516 6.95473 49.3287 6.95473 49.4067C6.95473 49.4847 6.93766 49.5618 6.90471 49.6326C6.87177 49.7033 6.82374 49.766 6.76402 49.8162L0.264015 56.0892C0.0200151 56.3332 0.00301513 56.4552 0.264015 56.7162C1.11802 57.5352 2.00702 58.3712 2.79102 59.2432C3.12202 59.5922 3.29602 59.6262 3.66202 59.2432L45.118 17.7702L58.501 4.4052C58.867 4.1432 58.851 3.9342 58.536 3.6202ZM44.961 11.4582C33.5297 22.8455 22.116 34.2605 10.72 45.7032C10.337 46.0862 10.197 46.0522 9.88402 45.7032C7.2515 42.364 5.51796 38.4063 4.84859 34.2072C4.17921 30.0081 4.5963 25.7076 6.06011 21.7154C7.52392 17.7232 9.98568 14.1724 13.2108 11.4013C16.4359 8.63022 20.3169 6.7312 24.484 5.8852C28.0318 5.10938 31.708 5.13528 35.2445 5.96101C38.781 6.78675 42.0886 8.3915 44.926 10.6582C45.345 10.9912 45.292 11.1132 44.961 11.4582Z" fill="#8490A1"/>
</svg>
