<svg width="327" height="308" viewBox="0 0 327 308" fill="none" xmlns="http://www.w3.org/2000/svg">
<mask id="mask0_5602_1236" style="mask-type:luminance" maskUnits="userSpaceOnUse" x="0" y="0" width="305" height="308">
<path d="M305 0H0V308H305V0Z" fill="white"/>
</mask>
<g mask="url(#mask0_5602_1236)">
<path opacity="0.05" d="M-577.736 245.374C-501.82 217.497 -445.019 178.674 -285.399 231.158C-129.374 286.522 -81.9189 324.629 91.3611 289.398C164.832 274.46 246.039 225.857 275.427 168.605C294.208 132.015 301.302 72.8241 275.427 41.8701C246.773 7.59206 205.313 -8.16094 145.287 22.6461C75.7131 57.3841 74.151 112.751 -102.771 70.1C-279.693 27.449 -308.415 -60.365 -549.302 0.527042C-790.189 61.419 -760.979 174.289 -760.979 174.289C-760.979 174.289 -740.441 316.459 -577.736 245.374Z" fill="#098AD3"/>
</g>
<mask id="mask1_5602_1236" style="mask-type:luminance" maskUnits="userSpaceOnUse" x="48" y="38" width="279" height="207">
<path d="M327 38.5518H48V244.142H327V38.5518Z" fill="white"/>
</mask>
<g mask="url(#mask1_5602_1236)">
<path d="M205.46 140.342L248.97 133.622L262.2 219.242L218.69 225.972L205.46 140.342Z" fill="#BBD951"/>
<path d="M247.32 136.712L259.7 216.792L220.32 222.872L207.94 142.802L247.32 136.712ZM256.71 214.602L245.13 139.702L210.93 144.992L222.51 219.892L256.71 214.602Z" fill="#C9EDF9"/>
<mask id="mask2_5602_1236" style="mask-type:luminance" maskUnits="userSpaceOnUse" x="59" y="38" width="266" height="207">
<path d="M324.21 38.5518H59.15V244.142H324.21V38.5518Z" fill="white"/>
</mask>
<g mask="url(#mask2_5602_1236)">
<mask id="mask3_5602_1236" style="mask-type:luminance" maskUnits="userSpaceOnUse" x="221" y="170" width="27" height="18">
<path d="M247.47 170.742H221.28V187.472H247.47V170.742Z" fill="white"/>
</mask>
<g mask="url(#mask3_5602_1236)">
<path d="M227.99 177.911C227.524 178.127 227.116 178.45 226.798 178.853C226.48 179.256 226.262 179.728 226.16 180.231C226.296 180.247 226.434 180.247 226.57 180.231C228.18 179.801 229.79 179.351 231.4 178.931C231.76 178.841 231.85 178.691 231.87 178.321C231.908 177.474 231.992 176.63 232.12 175.791C232.58 172.841 234.58 171.291 237.34 170.881C240.67 170.381 243 171.642 244.57 174.642C244.85 175.192 245.15 175.291 245.68 175.091C246.06 174.951 246.48 174.872 246.91 174.752L247.47 176.821L245.61 177.321C245.885 178.979 245.554 180.68 244.678 182.114C243.802 183.548 242.44 184.619 240.84 185.131L239.43 181.532C240.064 181.202 240.624 180.745 241.073 180.189C241.522 179.634 241.851 178.991 242.04 178.301L239.61 178.952C238.55 179.242 237.51 179.541 236.44 179.801C236.277 179.817 236.127 179.896 236.022 180.021C235.917 180.147 235.866 180.309 235.88 180.472C235.864 181.785 235.539 183.077 234.93 184.241C234.334 185.309 233.445 186.182 232.367 186.758C231.289 187.335 230.068 187.589 228.85 187.491C227.749 187.468 226.679 187.122 225.772 186.496C224.866 185.871 224.163 184.993 223.75 183.972L223.54 183.541C223.503 183.474 223.459 183.411 223.41 183.351L221.85 183.771L221.32 181.621C221.69 181.521 222.07 181.401 222.45 181.321C222.83 181.241 222.93 181.051 222.9 180.661C222.777 179.834 222.836 178.99 223.07 178.187C223.305 177.385 223.711 176.642 224.26 176.011C224.889 175.294 225.677 174.732 226.56 174.371L228.04 177.901M236.04 177.601L241.62 176.091C241.343 175.471 240.864 174.963 240.261 174.651C239.658 174.339 238.966 174.24 238.3 174.371C236.9 174.631 236.02 175.851 236.04 177.601ZM226.75 182.452C227.074 182.926 227.534 183.292 228.069 183.501C228.604 183.71 229.19 183.752 229.75 183.621C230.281 183.446 230.746 183.113 231.082 182.666C231.418 182.219 231.609 181.68 231.63 181.121L226.7 182.452" fill="#C9EDF9"/>
</g>
</g>
<path d="M261.65 124.111L222.538 209.147L265.756 229.025L304.868 143.989L261.65 124.111Z" fill="#50EE95"/>
<path d="M301.48 145.792L264.94 225.292L225.85 207.292L262.38 127.792L301.48 145.792ZM263.55 221.532L297.73 147.172L263.73 131.572L229.59 205.922L263.55 221.532Z" fill="#00BF90"/>
<mask id="mask4_5602_1236" style="mask-type:luminance" maskUnits="userSpaceOnUse" x="59" y="38" width="266" height="207">
<path d="M324.21 38.5518H59.15V244.142H324.21V38.5518Z" fill="white"/>
</mask>
<g mask="url(#mask4_5602_1236)">
<mask id="mask5_5602_1236" style="mask-type:luminance" maskUnits="userSpaceOnUse" x="252" y="162" width="26" height="19">
<path d="M277.34 162.042H252.37V180.292H277.34V162.042Z" fill="white"/>
</mask>
<g mask="url(#mask5_5602_1236)">
<path d="M260.83 166.002C260.334 165.864 259.813 165.845 259.309 165.948C258.805 166.05 258.332 166.271 257.93 166.592C258.037 166.681 258.151 166.761 258.27 166.832C259.78 167.542 261.27 168.232 262.8 168.952C262.858 168.991 262.924 169.019 262.993 169.032C263.062 169.046 263.133 169.046 263.201 169.032C263.27 169.018 263.336 168.99 263.394 168.951C263.452 168.912 263.502 168.861 263.54 168.802C264.112 168.174 264.719 167.58 265.36 167.022C267.62 165.022 270.14 165.172 272.52 166.632C275.38 168.402 276.35 170.872 275.62 174.172C275.49 174.772 275.62 175.042 276.18 175.232C276.576 175.391 276.963 175.571 277.34 175.772L276.43 177.712L274.68 176.902C273.821 178.345 272.471 179.431 270.877 179.961C269.284 180.492 267.553 180.432 266 179.792L267.25 176.122C267.947 176.284 268.67 176.298 269.373 176.163C270.075 176.029 270.742 175.749 271.33 175.342L269.04 174.272C268.04 173.812 267.04 173.362 266.04 172.882C265.974 172.834 265.899 172.799 265.819 172.78C265.739 172.761 265.657 172.758 265.576 172.771C265.495 172.784 265.417 172.813 265.348 172.856C265.278 172.899 265.218 172.955 265.17 173.022C264.311 174.015 263.228 174.79 262.01 175.282C260.869 175.713 259.628 175.807 258.435 175.554C257.242 175.3 256.147 174.71 255.28 173.852C254.447 173.124 253.848 172.166 253.558 171.099C253.268 170.031 253.3 168.901 253.65 167.852L253.77 167.392C253.775 167.315 253.775 167.239 253.77 167.162L252.31 166.482L253.23 164.482C253.589 164.628 253.94 164.795 254.28 164.982C254.64 165.182 254.83 165.082 255.05 164.762C255.489 164.058 256.073 163.454 256.762 162.992C257.452 162.53 258.232 162.22 259.05 162.082C259.996 161.946 260.961 162.028 261.87 162.322L260.72 165.972M267.04 170.912L272.28 173.362C272.469 172.709 272.431 172.01 272.171 171.382C271.911 170.753 271.445 170.231 270.85 169.902C270.205 169.564 269.456 169.48 268.751 169.665C268.047 169.85 267.437 170.291 267.04 170.902M256.81 168.612C256.747 169.193 256.865 169.78 257.148 170.292C257.43 170.804 257.864 171.216 258.39 171.472C258.902 171.671 259.463 171.711 259.998 171.586C260.533 171.461 261.019 171.177 261.39 170.772L256.76 168.612" fill="#C9EDF9"/>
</g>
</g>
<path d="M290.49 144.282L224.537 210.609L258.243 244.125L324.196 177.798L290.49 144.282Z" fill="#50EE95"/>
<path d="M320.47 178.342L258.8 240.392L228.32 210.062L290 148.012L320.47 178.342ZM258.78 236.392L316.47 178.392L289.97 152.052L232.28 210.052L258.78 236.392Z" fill="#00BF90"/>
<path d="M294.42 127.241C294.503 134.643 292.388 141.903 288.344 148.103C284.3 154.302 278.509 159.164 271.702 162.071C264.895 164.979 257.378 165.803 250.103 164.438C242.828 163.073 236.121 159.581 230.83 154.404C225.54 149.227 221.904 142.597 220.382 135.353C218.86 128.11 219.52 120.577 222.28 113.709C225.04 106.84 229.774 100.944 235.885 96.7673C241.996 92.5901 249.208 90.319 256.61 90.2414C266.53 90.1348 276.087 93.9729 283.177 100.912C290.268 107.85 294.312 117.321 294.42 127.241Z" fill="#FFB93E"/>
<path d="M290.66 127.282C290.731 133.937 288.826 140.464 285.188 146.036C281.549 151.609 276.34 155.978 270.218 158.59C264.096 161.202 257.337 161.94 250.796 160.711C244.255 159.481 238.226 156.34 233.47 151.684C228.714 147.027 225.446 141.065 224.079 134.552C222.712 128.038 223.307 121.265 225.79 115.09C228.272 108.914 232.53 103.614 238.025 99.8583C243.52 96.1028 250.005 94.0612 256.66 93.9916C265.583 93.8983 274.178 97.353 280.554 103.596C286.93 109.839 290.565 118.359 290.66 127.282Z" fill="#FFC53E"/>
<path d="M257.32 159.122C251.088 159.189 244.976 157.406 239.757 153.999C234.538 150.592 230.447 145.714 228.001 139.982C225.554 134.25 224.863 127.921 226.013 121.796C227.164 115.671 230.105 110.024 234.465 105.571C238.825 101.117 244.408 98.0566 250.507 96.7759C256.606 95.4953 262.948 96.0522 268.731 98.3761C274.514 100.7 279.478 104.687 282.995 109.832C286.512 114.977 288.424 121.05 288.49 127.282C288.57 135.635 285.333 143.678 279.489 149.648C273.646 155.617 265.673 159.024 257.32 159.122ZM256.66 97.2717C250.657 97.3374 244.808 99.1819 239.854 102.572C234.899 105.962 231.061 110.745 228.825 116.317C226.589 121.888 226.056 127.998 227.293 133.872C228.53 139.747 231.481 145.123 235.773 149.32C240.065 153.517 245.506 156.347 251.407 157.452C257.308 158.556 263.404 157.886 268.924 155.526C274.444 153.166 279.14 149.222 282.418 144.193C285.696 139.163 287.409 133.275 287.34 127.272C287.248 119.226 283.964 111.546 278.211 105.92C272.458 100.294 264.706 97.1837 256.66 97.2717Z" fill="#FFA412"/>
<mask id="mask6_5602_1236" style="mask-type:luminance" maskUnits="userSpaceOnUse" x="244" y="105" width="26" height="46">
<path d="M269.86 105.461H244.87V150.531H269.86V105.461Z" fill="white"/>
</mask>
<g mask="url(#mask6_5602_1236)">
<path d="M262.13 118.061C261.977 117.207 261.626 116.4 261.105 115.705C260.584 115.011 259.908 114.448 259.13 114.061C259.079 114.292 259.042 114.526 259.02 114.761C259.02 117.591 259.1 120.421 259.1 123.241C259.1 123.861 259.31 124.091 259.9 124.241C261.283 124.66 262.641 125.154 263.97 125.721C268.61 127.721 270.31 131.721 269.81 136.381C269.21 142.061 266.15 145.381 260.56 146.661C259.56 146.891 259.25 147.331 259.35 148.291C259.42 148.981 259.35 149.691 259.35 150.461H255.7V147.181C247.7 145.981 245.28 140.291 244.9 136.031L251.43 135.251C251.697 136.434 252.207 137.549 252.928 138.523C253.65 139.498 254.566 140.311 255.62 140.911V136.631C255.62 134.781 255.55 132.931 255.57 131.081C255.6 130.945 255.602 130.803 255.574 130.666C255.546 130.529 255.49 130.399 255.409 130.285C255.328 130.171 255.224 130.075 255.103 130.004C254.983 129.933 254.849 129.888 254.71 129.871C252.556 129.294 250.571 128.211 248.92 126.711C245.6 123.511 245.01 119.521 246.17 115.351C247.25 111.461 250.17 109.271 254.12 108.471L254.91 108.311C255.037 108.275 255.161 108.228 255.28 108.171V105.441H258.98C258.98 106.091 259.04 106.751 258.98 107.441C258.92 108.131 259.23 108.351 259.88 108.441C261.288 108.603 262.645 109.062 263.863 109.787C265.08 110.513 266.129 111.489 266.94 112.651C267.809 114 268.36 115.529 268.55 117.121L262.13 118.041M259.22 131.331C259.22 134.661 259.29 137.901 259.32 141.141C260.464 140.964 261.51 140.396 262.282 139.533C263.053 138.671 263.501 137.568 263.55 136.411C263.73 134.001 262.1 132.031 259.21 131.331M255.21 114.011C254.276 114.34 253.466 114.948 252.89 115.753C252.314 116.558 252 117.521 251.99 118.511C252.046 119.461 252.394 120.371 252.987 121.115C253.579 121.86 254.387 122.403 255.3 122.671C255.3 119.831 255.24 116.981 255.21 114.011Z" fill="#FFA412"/>
</g>
<path d="M153.71 105.481H233.32C234.512 105.479 235.693 105.711 236.795 106.165C237.897 106.619 238.899 107.286 239.743 108.127C240.587 108.969 241.257 109.968 241.715 111.069C242.172 112.17 242.409 113.35 242.41 114.541V232.831C242.409 234.023 242.172 235.203 241.715 236.304C241.257 237.405 240.587 238.404 239.743 239.246C238.899 240.087 237.897 240.754 236.795 241.208C235.693 241.662 234.512 241.894 233.32 241.891H153.71C151.304 241.894 148.994 240.941 147.29 239.243C145.586 237.544 144.625 235.238 144.62 232.831V114.541C144.625 112.135 145.586 109.829 147.29 108.13C148.994 106.432 151.304 105.479 153.71 105.481Z" fill="#1B404F"/>
<path d="M234.57 116.742H153.43V137.622H234.57V116.742Z" fill="#DFF3FF"/>
<path d="M173.32 151.122H156.83C156.383 151.122 155.941 151.034 155.529 150.863C155.116 150.692 154.741 150.441 154.426 150.126C154.11 149.81 153.86 149.435 153.689 149.023C153.518 148.61 153.43 148.168 153.43 147.722V147.002C153.43 146.1 153.788 145.235 154.426 144.597C155.063 143.96 155.928 143.602 156.83 143.602H173.32C174.222 143.602 175.086 143.96 175.724 144.597C176.362 145.235 176.72 146.1 176.72 147.002V147.722C176.72 148.168 176.632 148.61 176.461 149.023C176.29 149.435 176.04 149.81 175.724 150.126C175.408 150.441 175.034 150.692 174.621 150.863C174.209 151.034 173.766 151.122 173.32 151.122Z" fill="#0DD967"/>
<path d="M202.24 151.122H185.76C185.314 151.122 184.871 151.034 184.459 150.863C184.046 150.692 183.672 150.441 183.356 150.126C183.04 149.81 182.79 149.435 182.619 149.023C182.448 148.61 182.36 148.168 182.36 147.722V147.002C182.36 146.1 182.718 145.235 183.356 144.597C183.993 143.96 184.858 143.602 185.76 143.602H202.24C203.142 143.602 204.007 143.96 204.644 144.597C205.282 145.235 205.64 146.1 205.64 147.002V147.722C205.64 148.168 205.552 148.61 205.381 149.023C205.21 149.435 204.96 149.81 204.644 150.126C204.328 150.441 203.954 150.692 203.541 150.863C203.129 151.034 202.686 151.122 202.24 151.122Z" fill="#0DD967"/>
<path d="M231.17 151.122H214.69C214.244 151.122 213.801 151.034 213.389 150.863C212.976 150.692 212.602 150.441 212.286 150.126C211.97 149.81 211.72 149.435 211.549 149.023C211.378 148.61 211.29 148.168 211.29 147.722V147.002C211.29 146.1 211.648 145.235 212.286 144.597C212.923 143.96 213.788 143.602 214.69 143.602H231.17C232.072 143.602 232.937 143.96 233.574 144.597C234.212 145.235 234.57 146.1 234.57 147.002V147.722C234.57 148.168 234.482 148.61 234.311 149.023C234.14 149.435 233.89 149.81 233.574 150.126C233.258 150.441 232.884 150.692 232.471 150.863C232.059 151.034 231.617 151.122 231.17 151.122Z" fill="#0DD967"/>
<path d="M165.88 173.922H159C157.523 173.922 156.106 173.335 155.061 172.29C154.017 171.246 153.43 169.829 153.43 168.352V162.622C153.43 161.891 153.574 161.167 153.854 160.491C154.134 159.816 154.545 159.203 155.062 158.686C155.579 158.17 156.193 157.761 156.869 157.482C157.545 157.203 158.269 157.06 159 157.062H165.88C167.355 157.062 168.769 157.647 169.811 158.69C170.854 159.733 171.44 161.147 171.44 162.622V168.352C171.441 169.083 171.298 169.807 171.02 170.482C170.741 171.158 170.331 171.772 169.815 172.29C169.299 172.807 168.685 173.217 168.01 173.497C167.335 173.777 166.611 173.922 165.88 173.922Z" fill="#24B5E9"/>
<path d="M186.92 173.922H180.04C178.563 173.922 177.146 173.335 176.101 172.29C175.057 171.246 174.47 169.829 174.47 168.352V162.622C174.47 161.891 174.614 161.167 174.894 160.491C175.174 159.816 175.585 159.203 176.102 158.686C176.619 158.17 177.233 157.761 177.909 157.482C178.585 157.203 179.309 157.06 180.04 157.062H186.92C188.396 157.062 189.811 157.647 190.855 158.689C191.899 159.732 192.487 161.146 192.49 162.622V168.352C192.487 169.828 191.9 171.243 190.856 172.287C189.812 173.331 188.396 173.919 186.92 173.922Z" fill="#24B5E9"/>
<path d="M207.96 173.922H201.08C199.603 173.922 198.186 173.335 197.141 172.29C196.097 171.246 195.51 169.829 195.51 168.352V162.622C195.51 161.891 195.654 161.167 195.934 160.491C196.214 159.816 196.625 159.203 197.142 158.686C197.659 158.17 198.273 157.761 198.949 157.482C199.625 157.203 200.349 157.06 201.08 157.062H207.96C209.435 157.062 210.849 157.647 211.892 158.69C212.934 159.733 213.52 161.147 213.52 162.622V168.352C213.521 169.083 213.378 169.807 213.1 170.482C212.821 171.158 212.411 171.772 211.895 172.29C211.379 172.807 210.765 173.217 210.09 173.497C209.415 173.777 208.691 173.922 207.96 173.922Z" fill="#24B5E9"/>
<path d="M165.88 194.712H159C157.523 194.712 156.106 194.125 155.061 193.08C154.017 192.036 153.43 190.619 153.43 189.142V183.412C153.43 182.681 153.574 181.957 153.854 181.282C154.134 180.606 154.545 179.993 155.062 179.477C155.579 178.96 156.193 178.551 156.869 178.272C157.545 177.993 158.269 177.85 159 177.852H165.88C166.61 177.852 167.333 177.995 168.008 178.275C168.682 178.554 169.295 178.964 169.811 179.48C170.328 179.996 170.737 180.609 171.017 181.284C171.296 181.958 171.44 182.681 171.44 183.412V189.122C171.44 190.597 170.854 192.012 169.812 193.057C168.77 194.101 167.355 194.689 165.88 194.692" fill="#24B5E9"/>
<path d="M186.92 194.712H180.04C178.563 194.712 177.146 194.125 176.101 193.08C175.057 192.036 174.47 190.619 174.47 189.142V183.412C174.47 181.935 175.057 180.518 176.101 179.473C177.146 178.429 178.563 177.842 180.04 177.842H186.92C188.396 177.844 189.812 178.432 190.856 179.476C191.9 180.52 192.487 181.935 192.49 183.412V189.122C192.487 190.598 191.9 192.013 190.856 193.057C189.812 194.101 188.396 194.689 186.92 194.692" fill="#24B5E9"/>
<path d="M207.96 194.712H201.08C199.603 194.712 198.186 194.125 197.141 193.08C196.097 192.036 195.51 190.619 195.51 189.142V183.412C195.51 182.681 195.654 181.957 195.934 181.282C196.214 180.606 196.625 179.993 197.142 179.477C197.659 178.96 198.273 178.551 198.949 178.272C199.625 177.993 200.349 177.85 201.08 177.852H207.96C208.69 177.852 209.413 177.995 210.088 178.275C210.762 178.554 211.375 178.964 211.892 179.48C212.408 179.996 212.817 180.609 213.097 181.284C213.376 181.958 213.52 182.681 213.52 183.412V189.122C213.52 190.597 212.935 192.012 211.892 193.057C210.85 194.101 209.436 194.689 207.96 194.692" fill="#24B5E9"/>
<path d="M230.9 157.052H220.22C219.247 157.052 218.313 157.438 217.625 158.127C216.937 158.815 216.55 159.748 216.55 160.722V191.042C216.55 192.015 216.937 192.949 217.625 193.637C218.313 194.325 219.247 194.712 220.22 194.712H230.9C231.873 194.709 232.805 194.322 233.492 193.634C234.18 192.946 234.567 192.014 234.57 191.042V160.732C234.57 159.758 234.183 158.825 233.495 158.137C232.807 157.448 231.873 157.062 230.9 157.062" fill="#FF8363"/>
<path d="M165.88 215.501H159C157.523 215.501 156.106 214.915 155.061 213.87C154.017 212.825 153.43 211.409 153.43 209.931V204.201C153.43 202.724 154.017 201.307 155.061 200.263C156.106 199.218 157.523 198.631 159 198.631H165.88C167.355 198.634 168.77 199.222 169.812 200.266C170.854 201.311 171.44 202.726 171.44 204.201V209.931C171.44 211.407 170.854 212.822 169.812 213.866C168.77 214.911 167.355 215.499 165.88 215.501Z" fill="#24B5E9"/>
<path d="M186.92 215.501H180.04C178.563 215.501 177.146 214.915 176.101 213.87C175.057 212.825 174.47 211.409 174.47 209.931V204.201C174.47 202.724 175.057 201.307 176.101 200.263C177.146 199.218 178.563 198.631 180.04 198.631H186.92C188.397 198.631 189.814 199.218 190.859 200.263C191.903 201.307 192.49 202.724 192.49 204.201V209.931C192.487 211.408 191.9 212.823 190.856 213.867C189.812 214.911 188.396 215.499 186.92 215.501Z" fill="#24B5E9"/>
<path d="M207.96 215.501H201.08C199.603 215.501 198.186 214.915 197.141 213.87C196.097 212.825 195.51 211.409 195.51 209.931V204.201C195.51 202.724 196.097 201.307 197.141 200.263C198.186 199.218 199.603 198.631 201.08 198.631H207.96C209.436 198.634 210.85 199.222 211.892 200.266C212.935 201.311 213.52 202.726 213.52 204.201V209.931C213.52 211.407 212.935 212.822 211.892 213.866C210.85 214.911 209.436 215.499 207.96 215.501Z" fill="#24B5E9"/>
<path d="M229 215.501H222.12C220.643 215.501 219.226 214.915 218.181 213.87C217.137 212.825 216.55 211.409 216.55 209.931V204.201C216.55 202.724 217.137 201.307 218.181 200.263C219.226 199.218 220.643 198.631 222.12 198.631H229C230.476 198.634 231.892 199.222 232.936 200.266C233.98 201.31 234.567 202.725 234.57 204.201V209.931C234.567 211.408 233.98 212.823 232.936 213.867C231.892 214.911 230.476 215.499 229 215.501Z" fill="#FF8363"/>
<path d="M165.88 236.291H159C157.523 236.291 156.106 235.705 155.061 234.66C154.017 233.615 153.43 232.199 153.43 230.721V224.991C153.43 223.514 154.017 222.097 155.061 221.053C156.106 220.008 157.523 219.421 159 219.421H165.88C166.611 219.421 167.335 219.566 168.01 219.846C168.685 220.126 169.299 220.536 169.815 221.053C170.331 221.571 170.741 222.185 171.02 222.861C171.298 223.536 171.441 224.26 171.44 224.991V230.721C171.44 232.197 170.854 233.612 169.812 234.656C168.77 235.701 167.355 236.289 165.88 236.291Z" fill="#24B5E9"/>
<path d="M186.92 236.291H180.04C178.563 236.291 177.146 235.705 176.101 234.66C175.057 233.615 174.47 232.199 174.47 230.721V224.991C174.47 223.516 175.055 222.101 176.098 221.056C177.14 220.012 178.554 219.424 180.03 219.421H186.92C188.396 219.424 189.812 220.012 190.856 221.056C191.9 222.1 192.487 223.515 192.49 224.991V230.721C192.487 232.198 191.9 233.613 190.856 234.657C189.812 235.701 188.396 236.289 186.92 236.291Z" fill="#24B5E9"/>
<path d="M207.96 236.291H201.08C199.603 236.291 198.186 235.705 197.141 234.66C196.097 233.615 195.51 232.199 195.51 230.721V224.991C195.51 223.514 196.097 222.097 197.141 221.053C198.186 220.008 199.603 219.421 201.08 219.421H207.96C209.436 219.424 210.85 220.012 211.892 221.056C212.935 222.101 213.52 223.516 213.52 224.991V230.721C213.52 232.197 212.935 233.612 211.892 234.656C210.85 235.701 209.436 236.289 207.96 236.291Z" fill="#FF8363"/>
<path d="M229 236.291H222.12C220.643 236.291 219.226 235.705 218.181 234.66C217.137 233.615 216.55 232.199 216.55 230.721V224.991C216.55 223.514 217.137 222.097 218.181 221.053C219.226 220.008 220.643 219.421 222.12 219.421H229C230.476 219.424 231.892 220.012 232.936 221.056C233.98 222.1 234.567 223.515 234.57 224.991V230.721C234.567 232.197 233.979 233.611 232.935 234.654C231.891 235.696 230.476 236.281 229 236.281" fill="#0DD967"/>
<path d="M165.52 202.631V203.491L161.36 212.191H160.02L164.17 203.741H159.49V202.671L165.52 202.631Z" fill="white"/>
<path d="M180.32 209.761C180.33 209.19 180.519 208.636 180.859 208.177C181.2 207.718 181.676 207.377 182.22 207.201C181.782 207.035 181.403 206.741 181.132 206.358C180.862 205.975 180.711 205.52 180.7 205.051C180.734 204.344 181.046 203.679 181.569 203.201C182.092 202.723 182.782 202.472 183.49 202.501H183.66C185.51 202.501 186.43 203.661 186.43 204.851C186.426 205.34 186.274 205.816 185.994 206.216C185.713 206.616 185.318 206.921 184.86 207.091C185.401 207.247 185.879 207.57 186.226 208.013C186.572 208.457 186.77 208.999 186.79 209.561C186.79 211.221 185.36 212.341 183.54 212.341C181.54 212.341 180.34 211.151 180.34 209.751M185.48 209.691C185.48 208.531 184.67 207.971 183.38 207.601C182.907 207.686 182.478 207.931 182.165 208.296C181.851 208.66 181.673 209.121 181.66 209.601C181.652 209.834 181.69 210.066 181.771 210.283C181.853 210.501 181.977 210.701 182.136 210.871C182.294 211.041 182.485 211.178 182.697 211.274C182.909 211.37 183.137 211.424 183.37 211.431H183.57C184.027 211.479 184.485 211.344 184.843 211.055C185.2 210.767 185.43 210.348 185.48 209.891V209.721M181.93 204.941C181.93 205.941 182.65 206.411 183.75 206.711C184.148 206.617 184.506 206.397 184.769 206.084C185.032 205.77 185.186 205.38 185.21 204.971C185.219 204.777 185.19 204.583 185.125 204.399C185.059 204.216 184.957 204.048 184.826 203.904C184.696 203.76 184.537 203.643 184.361 203.56C184.185 203.478 183.994 203.43 183.8 203.421H183.58C183.381 203.401 183.18 203.42 182.989 203.478C182.798 203.536 182.62 203.632 182.467 203.759C182.313 203.887 182.186 204.044 182.094 204.221C182.002 204.398 181.946 204.592 181.93 204.791C181.925 204.845 181.925 204.898 181.93 204.951" fill="white"/>
<path d="M186.79 227.851C186.79 231.091 185.58 232.851 183.47 232.851C181.6 232.851 180.34 231.101 180.31 227.941C180.28 224.781 181.69 222.941 183.63 222.941C185.57 222.941 186.79 224.731 186.79 227.781M181.6 227.921C181.6 230.411 182.37 231.821 183.54 231.821C184.86 231.821 185.54 230.281 185.54 227.821C185.54 225.361 184.94 223.921 183.6 223.921C182.46 223.921 181.6 225.301 181.6 227.921Z" fill="white"/>
<path d="M202.53 211.281C202.863 211.313 203.197 211.313 203.53 211.281C204.276 211.19 204.975 210.868 205.53 210.361C206.232 209.682 206.677 208.781 206.79 207.811C206.418 208.25 205.923 208.566 205.37 208.721C204.816 208.876 204.229 208.861 203.684 208.679C203.139 208.498 202.66 208.157 202.31 207.701C201.96 207.245 201.755 206.695 201.72 206.121V205.901C201.687 205.033 202.001 204.187 202.592 203.55C203.182 202.912 204.002 202.535 204.87 202.501H204.99C206.99 202.501 208.15 204.081 208.15 206.501C208.193 207.323 208.07 208.144 207.786 208.916C207.502 209.688 207.065 210.394 206.5 210.991C205.739 211.711 204.762 212.161 203.72 212.271C203.326 212.33 202.928 212.353 202.53 212.341V211.281ZM203 205.781C202.953 206.264 203.099 206.746 203.406 207.121C203.714 207.496 204.157 207.733 204.64 207.781H204.84C205.214 207.796 205.585 207.712 205.915 207.536C206.246 207.36 206.523 207.1 206.72 206.781C206.805 206.64 206.846 206.476 206.84 206.311C206.84 204.681 206.24 203.431 204.84 203.431C204.561 203.455 204.29 203.536 204.044 203.667C203.797 203.798 203.579 203.978 203.403 204.196C203.228 204.413 203.098 204.664 203.022 204.933C202.946 205.202 202.925 205.484 202.96 205.761" fill="white"/>
<path d="M163.32 190.991V188.391H158.89V187.541L163.15 181.441H164.55V187.381H165.89V188.381H164.55V190.981L163.32 190.991ZM163.32 187.381V184.191C163.32 183.691 163.32 183.191 163.37 182.691H163.32C163.03 183.241 162.8 183.691 162.53 184.101L160.19 187.341L163.32 187.381Z" fill="white"/>
<path d="M186.14 182.522H182.5L182.13 184.982C182.388 184.942 182.649 184.922 182.91 184.922C183.63 184.903 184.342 185.079 184.97 185.432C185.398 185.68 185.751 186.04 185.991 186.473C186.231 186.906 186.348 187.397 186.33 187.892C186.325 188.326 186.234 188.756 186.063 189.155C185.892 189.555 185.643 189.917 185.332 190.22C185.021 190.524 184.653 190.764 184.25 190.925C183.846 191.086 183.415 191.167 182.98 191.162H182.78C181.948 191.184 181.125 190.98 180.4 190.572L180.72 189.572C181.336 189.904 182.021 190.085 182.72 190.102C183 190.121 183.281 190.084 183.547 189.993C183.813 189.903 184.058 189.76 184.268 189.574C184.478 189.388 184.65 189.162 184.772 188.909C184.894 188.656 184.965 188.382 184.98 188.102C184.98 188.102 184.98 188.022 184.98 187.972C184.98 186.742 184.14 185.862 182.23 185.862C181.785 185.865 181.341 185.898 180.9 185.962L181.52 181.372H186.09L186.14 182.522Z" fill="white"/>
<path d="M207.24 182.352C206.906 182.331 206.57 182.348 206.24 182.402C205.387 182.521 204.599 182.92 203.996 183.535C203.394 184.15 203.012 184.947 202.91 185.801C203.148 185.502 203.442 185.252 203.776 185.066C204.11 184.881 204.478 184.763 204.858 184.719C205.237 184.675 205.622 184.707 205.99 184.812C206.357 184.917 206.701 185.094 207 185.332C207.362 185.627 207.651 186.004 207.842 186.431C208.033 186.858 208.121 187.324 208.1 187.792C208.141 188.633 207.85 189.457 207.288 190.086C206.727 190.715 205.941 191.097 205.1 191.152H204.95C202.95 191.152 201.57 189.572 201.57 187.082C201.544 186.293 201.674 185.508 201.952 184.77C202.23 184.032 202.651 183.357 203.19 182.782C204.019 181.982 205.094 181.485 206.24 181.372C206.554 181.32 206.872 181.293 207.19 181.292L207.24 182.352ZM206.87 187.862C206.904 187.608 206.887 187.35 206.82 187.103C206.754 186.856 206.64 186.625 206.483 186.422C206.327 186.219 206.133 186.05 205.911 185.923C205.689 185.795 205.444 185.714 205.19 185.682C205.094 185.671 204.996 185.671 204.9 185.682C204.514 185.69 204.138 185.803 203.812 186.009C203.486 186.215 203.223 186.507 203.05 186.852C202.951 187.029 202.9 187.229 202.9 187.432C202.9 189.002 203.65 190.161 205 190.161C206.12 190.161 206.87 189.232 206.87 187.872" fill="white"/>
<path d="M162.12 162.332L160.45 163.232L160.2 162.232L162.32 161.122H163.42V170.672H162.12V162.332Z" fill="white"/>
<path d="M180.44 170.681V169.881L181.44 168.881C183.88 166.561 184.99 165.321 185 163.881C185.048 163.433 184.915 162.984 184.632 162.634C184.349 162.283 183.938 162.059 183.49 162.011H183.1C182.362 162.051 181.658 162.336 181.1 162.821L180.69 161.911C181.445 161.272 182.401 160.918 183.39 160.911C184.1 160.85 184.806 161.072 185.353 161.53C185.9 161.987 186.244 162.642 186.31 163.351V163.691C186.31 165.451 185.03 166.881 183.01 168.821L182.25 169.521H186.54V170.601L180.44 170.681Z" fill="white"/>
<path d="M202.09 169.191C202.732 169.574 203.463 169.781 204.21 169.791C205.87 169.791 206.38 168.791 206.37 167.941C206.37 166.601 205.15 166.031 203.9 166.031H203.18V165.031H203.9C204.84 165.031 206.03 164.551 206.03 163.411C206.03 162.651 205.55 161.971 204.36 161.971C203.671 161.991 203.003 162.214 202.44 162.611L202.11 161.611C202.855 161.132 203.724 160.878 204.61 160.881C206.49 160.881 207.34 162.001 207.34 163.161C207.331 163.677 207.155 164.175 206.837 164.581C206.519 164.987 206.078 165.279 205.58 165.411C206.169 165.497 206.708 165.792 207.099 166.242C207.49 166.691 207.707 167.266 207.71 167.861C207.71 169.391 206.52 170.731 204.22 170.731C203.35 170.738 202.495 170.513 201.74 170.081L202.09 169.191Z" fill="white"/>
<path d="M163.59 231.462C163.59 231.689 163.523 231.911 163.396 232.1C163.27 232.29 163.09 232.437 162.88 232.524C162.67 232.611 162.439 232.634 162.216 232.589C161.993 232.545 161.788 232.436 161.627 232.275C161.466 232.114 161.357 231.909 161.312 231.686C161.268 231.463 161.291 231.232 161.378 231.021C161.465 230.811 161.612 230.632 161.801 230.505C161.99 230.379 162.213 230.312 162.44 230.312C162.591 230.31 162.742 230.339 162.882 230.396C163.022 230.454 163.149 230.538 163.256 230.645C163.363 230.752 163.448 230.88 163.505 231.02C163.563 231.16 163.591 231.31 163.59 231.462Z" fill="white"/>
<path d="M232.4 176.491H226.32V170.421H224.76V176.491H218.69V178.051H224.76V184.121H226.32V178.061H232.38L232.4 176.491Z" fill="white"/>
<path d="M208.55 231.442L205.32 228.232L208.53 225.022L207.71 224.202L204.5 227.412L201.32 224.202L200.49 225.022L203.7 228.232L200.49 231.442L201.32 232.272L204.53 229.062L207.74 232.272L208.55 231.442Z" fill="white"/>
<path d="M230.27 206.731H220.11V208.281H230.27V206.731Z" fill="white"/>
<path d="M230.64 224.711H220.48V226.261H230.64V224.711Z" fill="white"/>
<path d="M230.64 228.622H220.48V230.172H230.64V228.622Z" fill="white"/>
<path d="M192.18 123.402V124.732L195.18 125.512L195.27 122.582L192.18 123.402Z" fill="#FFC0BB"/>
<path d="M199 123.121V124.701C199 124.701 201.89 125.571 201.88 125.581C201.87 125.591 202.11 122.981 202.11 122.981L199 123.121Z" fill="#FFC0BB"/>
<path d="M181.32 61.6217L180.76 65.1217L179.59 60.5117C179.59 60.5117 181.22 59.7217 181.29 60.0117C181.325 60.5612 181.325 61.1123 181.29 61.6617" fill="#2C3A64"/>
<path d="M172.04 69.0615L171.54 75.0615L176.82 74.8015L176.21 69.5115L172.04 69.0615Z" fill="#FFC0BB"/>
<path d="M176.49 72.0115L176.21 69.4915L172.04 69.0615L171.87 71.1215C172.464 71.7136 173.221 72.114 174.045 72.2709C174.869 72.4277 175.72 72.3339 176.49 72.0015" fill="#F99893"/>
<path d="M179.72 65.0317C179.673 65.2295 179.683 65.4363 179.749 65.6286C179.815 65.8208 179.933 65.9907 180.091 66.1186C180.249 66.2466 180.439 66.3274 180.641 66.3519C180.843 66.3764 181.047 66.3435 181.231 66.257C181.415 66.1705 181.571 66.0339 181.68 65.8629C181.79 65.6919 181.849 65.4935 181.851 65.2903C181.853 65.0872 181.798 64.8876 181.691 64.7145C181.585 64.5414 181.432 64.4018 181.25 64.3117C180.951 64.2108 180.625 64.2295 180.34 64.3637C180.055 64.4979 179.833 64.7373 179.72 65.0317Z" fill="#F99893"/>
<path d="M179.32 68.9616C179.502 68.6771 179.662 68.3796 179.8 68.0716C180.149 67.2527 180.391 66.3923 180.52 65.5116C180.536 65.3411 180.573 65.1732 180.63 65.0116C180.805 64.2926 180.836 63.5463 180.722 62.8152C180.608 62.0841 180.352 61.3825 179.967 60.7506C179.582 60.1187 179.076 59.5688 178.479 59.1323C177.882 58.6958 177.204 58.3812 176.485 58.2066C175.766 58.0319 175.02 58.0006 174.289 58.1144C173.558 58.2282 172.856 58.4848 172.224 58.8697C171.592 59.2546 171.042 59.7602 170.606 60.3576C170.169 60.9551 169.855 61.6326 169.68 62.3516C169.599 62.6795 169.549 63.0143 169.53 63.3516C169.374 63.2406 169.194 63.1682 169.004 63.1403C168.815 63.1125 168.621 63.1301 168.44 63.1916C168.115 63.4021 167.872 63.717 167.751 64.0844C167.63 64.4517 167.637 64.8495 167.772 65.212C167.907 65.5745 168.162 65.8801 168.495 66.0782C168.827 66.2763 169.217 66.3551 169.6 66.3016C169.692 66.2614 169.779 66.2111 169.86 66.1516C169.887 67.4752 170.41 68.7405 171.324 69.6977C172.239 70.6548 173.479 71.2343 174.8 71.3216C176.084 71.3891 177.345 70.9593 178.32 70.1216L178.52 69.9516C178.832 69.6545 179.104 69.3184 179.33 68.9516" fill="#FFC0BB"/>
<path d="M174.95 97.1216C174.95 97.1216 173.85 104.582 181.06 105.882C186.41 106.689 191.823 106.994 197.23 106.792L198.48 123.932L202.24 124.122C202.24 124.122 211.93 100.312 198.52 96.5916L186.52 96.6516L181.52 96.2916C181.52 96.2916 176.52 95.0516 176.43 95.2916C176.34 95.5316 175.08 97.2916 174.96 97.1316" fill="#163744"/>
<path d="M168.32 97.1213C168.32 97.1213 167.22 104.581 174.43 105.881C179.78 106.689 185.193 106.993 190.6 106.791L191.85 123.931L195.62 124.121C195.62 124.121 205.32 100.321 191.89 96.6013L179.89 96.6613L174.89 96.3013C174.89 96.3013 169.89 95.0613 169.81 95.3013C169.73 95.5413 168.44 97.2513 168.32 97.1213Z" fill="#193C4A"/>
<path d="M177.4 72.6516C177.4 72.6516 182.4 73.2816 183.63 74.3116C184.86 75.3416 190.95 90.3816 190.95 90.3816L185.95 96.2916L175.24 96.3616C175.24 96.3616 167.24 100.702 162.16 96.6016C157.08 92.5016 159.72 78.2516 162.63 75.1716C165.54 72.0916 170.75 72.1716 170.75 72.1716C170.75 72.1716 175.47 75.4816 177.45 72.6416" fill="#098AD3"/>
<path d="M167.79 80.1218C167.96 80.9405 168.08 81.7687 168.15 82.6018C168.15 83.0218 168.21 83.4418 168.24 83.8618C168.27 84.2818 168.24 84.7018 168.24 85.1218C168.238 85.9624 168.172 86.8016 168.04 87.6318C167.92 88.4688 167.671 89.2819 167.3 90.0418C167.549 89.2479 167.713 88.4301 167.79 87.6018C167.88 86.7718 167.91 85.9418 167.92 85.1118C167.93 84.2818 167.92 83.4518 167.92 82.6118C167.92 81.7718 167.85 80.9518 167.81 80.1118" fill="#0053C9"/>
<path d="M182.64 79.5818C182.87 80.8018 183.11 82.0218 183.35 83.2318C183.59 84.4418 183.86 85.6618 184.15 86.8618C184.44 88.0618 184.76 89.2518 185.15 90.4218C185.345 90.9993 185.568 91.5667 185.82 92.1218C186.062 92.6896 186.382 93.2213 186.77 93.7018C186.332 93.2564 185.965 92.7473 185.68 92.1918C185.387 91.6388 185.13 91.0676 184.91 90.4818C184.69 89.9018 184.5 89.3018 184.31 88.7118C184.12 88.1218 183.98 87.5118 183.83 86.9118C183.68 86.3118 183.55 85.7018 183.43 85.0918C183.31 84.4818 183.19 83.8718 183.1 83.2518C182.9 82.0318 182.74 80.8018 182.63 79.5518" fill="#0053C9"/>
<path d="M185.13 92.8813C185.13 92.6313 183.21 92.3513 182.51 92.3113C181.99 92.3113 178.51 92.1713 177.3 92.1113L177.39 92.4213V93.7713L177.19 94.6613C178.19 94.7313 180.78 94.8313 181.32 94.9413C181.98 95.1137 182.625 95.3377 183.25 95.6113C183.25 95.6113 183.77 95.4913 183.12 95.2113C182.72 95.0404 182.361 94.7845 182.07 94.4613C181.98 94.3613 182.07 94.1913 182.15 94.2013C183.92 94.6713 184.1 94.7413 184.1 94.7413C184.1 94.7413 186.18 94.7413 184.1 94.2613C182.86 93.9813 182.42 93.8213 182.3 93.6813C182.277 93.6596 182.261 93.6312 182.255 93.6002C182.249 93.5691 182.253 93.5369 182.266 93.5082C182.28 93.4794 182.302 93.4556 182.329 93.44C182.357 93.4244 182.388 93.4179 182.42 93.4213C183.49 93.3513 185.42 93.7313 184.89 93.4813C184.137 93.2418 183.364 93.0711 182.58 92.9713C182.58 92.9713 182.49 92.7713 182.64 92.7613C183.64 92.6713 185.17 93.1013 185.14 92.8713" fill="#FFC0BB"/>
<path d="M166.58 89.8515C167.02 89.9615 167.45 90.0815 167.88 90.1715L169.19 90.4415C170.07 90.6015 170.95 90.7515 171.83 90.8715C172.71 90.9915 173.6 91.0915 174.49 91.1815C175.38 91.2715 176.28 91.3415 177.15 91.3915H177.32V91.4915C177.389 91.7818 177.442 92.0755 177.48 92.3715C177.512 92.6671 177.528 92.9642 177.53 93.2615C177.528 93.5632 177.501 93.8642 177.45 94.1615C177.397 94.4573 177.31 94.7459 177.19 95.0215L176.19 95.6815L175.19 96.3215L176.12 95.6015L177.04 94.8815C177.141 94.6141 177.208 94.3353 177.24 94.0515C177.277 93.7663 177.294 93.479 177.29 93.1915C177.278 92.9069 177.251 92.6232 177.21 92.3415C177.17 92.0584 177.113 91.7779 177.04 91.5015L177.18 91.6115L175.83 91.5315L174.49 91.4215C173.6 91.3215 172.71 91.2215 171.82 91.0715C170.93 90.9215 170.05 90.7515 169.18 90.5515C168.74 90.4415 168.31 90.3315 167.88 90.2015L166.6 89.7715" fill="#0053C9"/>
<path d="M207.55 82.8516H188.17L182.67 96.2616H175.99C175.866 96.2708 175.749 96.3243 175.661 96.4124C175.573 96.5005 175.519 96.6173 175.51 96.7416C175.513 96.8671 175.564 96.9867 175.654 97.0745C175.744 97.1624 175.864 97.2116 175.99 97.2116H201.11L207.55 82.8516Z" fill="#FFC53E"/>
<path d="M197.94 90.5116C197.882 90.6819 197.776 90.8318 197.635 90.9434C197.493 91.0549 197.323 91.1234 197.144 91.1407C196.965 91.1579 196.784 91.1231 196.625 91.0405C196.465 90.9578 196.332 90.8309 196.242 90.6748C196.153 90.5187 196.11 90.3401 196.12 90.1603C196.129 89.9806 196.19 89.8074 196.295 89.6614C196.4 89.5155 196.546 89.4029 196.713 89.3373C196.881 89.2717 197.064 89.2559 197.24 89.2916C197.494 89.3618 197.71 89.5293 197.841 89.7577C197.972 89.9861 198.007 90.257 197.94 90.5116Z" fill="#EEFBFF"/>
<path d="M181.42 58.3516C181.42 58.3516 183.07 58.4016 181.33 57.0016C179.59 55.6016 174.93 54.0016 171.95 55.5416C171.95 55.5416 171.35 54.2716 170.49 54.5416C169.63 54.8116 171.05 55.7216 171.05 55.7216C171.05 55.7216 169.95 55.7216 169.61 56.2316C169.27 56.7416 170.04 56.6416 170.41 56.6316C169.78 56.7316 167.41 58.2516 168.58 63.1116C169.01 63.0116 171.46 59.4616 171.46 59.4616C171.46 59.4616 177.06 62.5716 176.46 60.1016C176.46 60.1016 182.26 63.7216 181.46 60.7316C181.46 60.7316 183.7 60.8916 181.4 58.3216" fill="#235347"/>
<path d="M168.57 63.1718C168.742 63.1162 168.926 63.1083 169.102 63.1488C169.278 63.1893 169.44 63.2767 169.57 63.4018C170.07 63.8018 170.02 65.1818 170.02 65.1818C170.02 65.1818 172.39 66.7218 172.14 60.1818C171.88 53.2718 170.14 60.7318 170.14 60.7318L168.57 63.1718Z" fill="#235347"/>
<path d="M106.66 75.3315L119.75 93.1215L115.02 95.3615L120.75 109.662L106.63 93.2515L112.18 91.0615L106.66 75.3315Z" fill="#FFC53E"/>
<path d="M98.64 123.182L108.51 137.182L111.32 134.212L120.45 141.922L111.82 127.532L108.82 131.082L98.64 123.182Z" fill="#FFC53E"/>
<path d="M135.12 85.4717L133.54 98.1217L136.54 97.9217L137.68 106.732L140.16 94.5017L136.75 94.9617L135.12 85.4717Z" fill="#FFC53E"/>
<path d="M98.63 197.122L101.63 195.262L104.23 196.842L103.32 197.482L100.16 197.932C100.16 197.932 98.93 197.772 98.88 197.732C98.7698 197.538 98.6793 197.334 98.61 197.122" fill="#FFC0BB"/>
<path d="M98.63 197.122L97.87 197.612C97.7939 197.661 97.7355 197.733 97.7035 197.818C97.6715 197.903 97.6675 197.995 97.6921 198.083C97.7167 198.17 97.7686 198.247 97.8402 198.303C97.9119 198.358 97.9994 198.389 98.09 198.392H103.87C103.918 198.393 103.966 198.385 104.011 198.367C104.056 198.35 104.097 198.323 104.131 198.29C104.166 198.256 104.193 198.216 104.212 198.172C104.23 198.127 104.24 198.08 104.24 198.032V196.812C100.38 198.022 99.05 197.642 98.62 197.102" fill="#0DD967"/>
<path d="M111.32 197.212L114.32 195.352L116.92 196.922L116.01 197.572L112.85 198.022C112.85 198.022 111.62 197.862 111.57 197.822C111.464 197.626 111.374 197.422 111.3 197.212" fill="#FFC0BB"/>
<path d="M111.32 197.211L110.55 197.701C110.458 197.763 110.393 197.857 110.369 197.965C110.344 198.073 110.363 198.187 110.42 198.281C110.458 198.34 110.51 198.387 110.571 198.421C110.632 198.454 110.701 198.471 110.77 198.471H116.55C116.599 198.473 116.648 198.464 116.693 198.446C116.739 198.428 116.78 198.401 116.815 198.366C116.849 198.331 116.877 198.29 116.895 198.245C116.913 198.199 116.921 198.15 116.92 198.101V196.921C113.06 198.131 111.74 197.751 111.31 197.211" fill="#0DD967"/>
<path d="M140.85 146.002C141.455 145.643 142.146 145.453 142.85 145.453C143.554 145.453 144.245 145.643 144.85 146.002C146.97 147.222 146.97 151.322 146.14 152.302C145.31 153.282 146.14 154.622 144.51 155.902C142.88 157.182 140.19 157.652 138.67 156.152C137.15 154.652 138.27 151.312 138.27 151.312L140.85 146.002Z" fill="#2C3A64"/>
<path d="M117.43 159.672C117.425 159.686 117.416 159.699 117.406 159.71C117.395 159.72 117.382 159.729 117.368 159.735C117.354 159.74 117.339 159.743 117.324 159.742C117.309 159.742 117.294 159.738 117.28 159.732C116.73 158.849 116.072 158.04 115.32 157.322C115.11 157.402 116.23 159.092 116.11 159.252C115.99 159.412 114.93 157.742 114.72 157.872C114.51 158.002 115.52 159.492 115.46 159.572C115.4 159.652 114.32 158.322 114.13 158.322C113.94 158.322 114.99 159.892 114.93 160.012C114.87 160.132 113.81 159.292 113.73 159.382C113.65 159.472 113.58 159.502 115.43 162.092C115.43 162.092 116.24 162.902 116.29 163.232L117.29 163.542L118.29 162.542C118.29 162.542 118.39 158.442 118.29 158.352C118.19 158.262 118.04 158.352 117.5 159.652" fill="#FFC0BB"/>
<path d="M120.93 184.191L117.14 197.121L112.57 195.841L114.09 184.981L118.82 181.731L120.93 184.191Z" fill="#163744"/>
<path d="M135.71 157.642C135.71 157.642 127.77 167.412 126.42 168.962L118.42 161.022C117.519 161.522 116.694 162.148 115.97 162.882C115.97 162.882 119.21 170.382 121.97 172.342L127.56 176.122L126.49 178.672L128.49 180.222L129.49 177.702L132.38 171.322L135.1 162.822L135.62 158.612L135.71 157.642Z" fill="#098AD3"/>
<path d="M135.67 158.612C135.67 158.612 132.32 164.062 131.67 166.172C131.02 168.282 131.53 168.442 131.22 171.002C130.91 173.562 128.56 180.392 128.56 180.392L132.46 183.012C132.46 183.012 134.57 176.282 134.57 176.012C134.57 175.742 136.57 163.412 136.57 163.412L138.19 158.812L135.67 158.612Z" fill="#EEFBFF"/>
<path d="M132.05 182.741C132.05 182.741 125.35 176.741 120.17 175.521C114.99 174.301 101.07 195.321 101.07 195.321L104.4 197.721C104.4 197.721 116.4 189.061 118.73 185.191C118.73 185.191 128.51 198.101 131.79 198.411C135.07 198.721 138.79 198.031 143.13 192.791C148.07 186.841 132.05 182.791 132.05 182.791" fill="#193C4A"/>
<path d="M138.71 153.291L140.19 157.291C140.19 157.291 139.12 159.741 135.52 158.831C135.746 157.978 135.664 157.072 135.29 156.271C134.66 154.521 138.71 153.271 138.71 153.271" fill="#FFC0BB"/>
<g opacity="0.6">
<mask id="mask7_5602_1236" style="mask-type:luminance" maskUnits="userSpaceOnUse" x="135" y="153" width="5" height="5">
<path d="M139.4 153.292H135.22V157.922H139.4V153.292Z" fill="white"/>
</mask>
<g mask="url(#mask7_5602_1236)">
<path d="M138.71 153.291L139.41 155.161C139.09 156.561 137.91 157.551 135.63 157.921C135.607 157.357 135.492 156.799 135.29 156.271C134.67 154.531 138.71 153.271 138.71 153.271" fill="#FC8D84"/>
</g>
</g>
<path d="M118.13 181.271C118.07 181.601 118.04 181.936 118.04 182.271C118.042 182.606 118.068 182.941 118.12 183.271C118.172 183.609 118.246 183.943 118.34 184.271C118.425 184.613 118.535 184.947 118.67 185.271L118.75 185.211C118.571 185.086 118.401 184.949 118.24 184.801C118.07 184.651 117.91 184.501 117.76 184.341L117.33 183.841C117.19 183.671 117.06 183.481 116.93 183.301C117.038 183.495 117.158 183.682 117.29 183.861C117.42 184.041 117.56 184.221 117.71 184.391C117.853 184.561 118.007 184.721 118.17 184.871C118.334 185.026 118.507 185.17 118.69 185.301L118.84 185.401L118.77 185.231C118.65 184.921 118.54 184.611 118.45 184.291C118.352 183.963 118.275 183.629 118.22 183.291C118.16 182.961 118.12 182.627 118.1 182.291C118.075 181.959 118.075 181.624 118.1 181.291" fill="white"/>
<path d="M130.45 150.622C130.496 150.818 130.486 151.023 130.42 151.213C130.354 151.404 130.236 151.572 130.079 151.698C129.922 151.824 129.732 151.903 129.532 151.926C129.332 151.949 129.13 151.915 128.948 151.828C128.766 151.741 128.613 151.604 128.506 151.434C128.399 151.263 128.342 151.066 128.342 150.864C128.342 150.663 128.4 150.466 128.507 150.295C128.615 150.125 128.768 149.988 128.95 149.902C129.245 149.805 129.565 149.825 129.845 149.959C130.125 150.094 130.341 150.331 130.45 150.622Z" fill="#F99893"/>
<path d="M130.89 154.502C130.708 154.223 130.551 153.928 130.42 153.622C130.073 152.816 129.831 151.969 129.7 151.102C129.682 150.932 129.649 150.765 129.6 150.602C129.418 149.889 129.38 149.147 129.487 148.419C129.594 147.691 129.844 146.992 130.223 146.361C130.602 145.731 131.102 145.182 131.695 144.746C132.287 144.31 132.961 143.996 133.676 143.822C134.39 143.648 135.133 143.618 135.859 143.733C136.586 143.848 137.283 144.106 137.909 144.491C138.535 144.877 139.079 145.384 139.508 145.981C139.937 146.578 140.244 147.255 140.41 147.972C140.492 148.3 140.542 148.634 140.56 148.972C140.715 148.863 140.894 148.792 141.081 148.764C141.269 148.736 141.46 148.753 141.64 148.812C142.011 149.059 142.27 149.442 142.359 149.878C142.449 150.314 142.363 150.769 142.12 151.142C141.947 151.408 141.702 151.619 141.413 151.75C141.124 151.881 140.804 151.927 140.49 151.882C140.397 151.849 140.309 151.802 140.23 151.742C140.205 153.048 139.691 154.296 138.789 155.241C137.887 156.185 136.663 156.757 135.36 156.842C134.094 156.899 132.854 156.474 131.89 155.652L131.69 155.482C131.377 155.188 131.108 154.851 130.89 154.482" fill="#FFC0BB"/>
<path d="M128.82 160.862C130.066 163.98 130.361 167.397 129.667 170.682C128.973 173.968 127.321 176.974 124.921 179.322C122.52 181.67 119.478 183.255 116.178 183.876C112.879 184.497 109.469 184.127 106.379 182.813C103.289 181.498 100.657 179.298 98.8163 176.49C96.9753 173.682 96.0072 170.391 96.0341 167.033C96.061 163.676 97.0817 160.401 98.9674 157.623C100.853 154.844 103.519 152.686 106.63 151.422C108.707 150.584 110.928 150.164 113.167 150.185C115.407 150.207 117.62 150.669 119.68 151.545C121.741 152.422 123.609 153.696 125.177 155.294C126.745 156.893 127.983 158.785 128.82 160.862Z" fill="#FFB93E"/>
<path d="M127.23 161.502C128.553 164.794 128.694 168.442 127.629 171.827C126.564 175.211 124.358 178.121 121.389 180.062C118.419 182.003 114.868 182.855 111.341 182.472C107.814 182.089 104.528 180.495 102.044 177.962C99.56 175.429 98.0306 172.113 97.7165 168.58C97.4024 165.046 98.3229 161.512 100.321 158.581C102.32 155.649 105.273 153.501 108.677 152.502C112.081 151.503 115.726 151.715 118.992 153.102C120.851 153.89 122.535 155.038 123.949 156.48C125.363 157.921 126.478 159.628 127.23 161.502Z" fill="#FFC53E"/>
<path d="M118.37 180.551C115.733 181.605 112.844 181.853 110.066 181.265C107.288 180.676 104.747 179.278 102.764 177.245C100.781 175.213 99.4452 172.639 98.925 169.847C98.4048 167.056 98.7237 164.173 99.8415 161.563C100.959 158.953 102.826 156.733 105.205 155.183C107.584 153.634 110.37 152.824 113.209 152.857C116.048 152.89 118.814 153.764 121.156 155.369C123.499 156.973 125.313 159.236 126.37 161.871C127.073 163.623 127.423 165.496 127.401 167.383C127.379 169.27 126.985 171.135 126.242 172.87C125.499 174.605 124.422 176.176 123.071 177.494C121.72 178.812 120.123 179.851 118.37 180.551ZM107.84 154.411C105.303 155.435 103.127 157.188 101.587 159.448C100.046 161.708 99.2106 164.375 99.1855 167.11C99.1604 169.845 99.9469 172.526 101.446 174.814C102.944 177.103 105.088 178.895 107.605 179.965C110.123 181.035 112.901 181.334 115.589 180.825C118.276 180.316 120.752 179.022 122.704 177.105C124.656 175.189 125.996 172.737 126.554 170.059C127.112 167.381 126.864 164.598 125.84 162.061C124.467 158.66 121.8 155.943 118.424 154.509C115.049 153.074 111.241 153.039 107.84 154.411Z" fill="#FFA412"/>
<mask id="mask8_5602_1236" style="mask-type:luminance" maskUnits="userSpaceOnUse" x="106" y="157" width="15" height="20">
<path d="M120.06 157.342H106.26V176.992H120.06V157.342Z" fill="white"/>
</mask>
<g mask="url(#mask8_5602_1236)">
<path d="M113.53 162.122C113.321 161.784 113.036 161.501 112.697 161.294C112.358 161.087 111.976 160.963 111.58 160.932C111.594 161.04 111.617 161.147 111.65 161.252C112.13 162.452 112.65 163.632 113.09 164.832C113.19 165.092 113.32 165.152 113.6 165.132C114.266 165.09 114.934 165.09 115.6 165.132C116.609 165.142 117.584 165.501 118.359 166.148C119.134 166.795 119.661 167.69 119.85 168.682C120.213 169.772 120.189 170.953 119.783 172.028C119.377 173.102 118.613 174.004 117.62 174.582C117.23 174.852 117.18 175.082 117.38 175.472C117.522 175.768 117.649 176.072 117.76 176.382L116.21 177.002L115.66 175.622C114.412 175.987 113.075 175.891 111.892 175.351C110.71 174.812 109.761 173.864 109.22 172.682L111.86 171.262C112.171 171.719 112.573 172.108 113.041 172.402C113.509 172.696 114.033 172.89 114.58 172.972L113.82 171.122C113.51 170.342 113.18 169.572 112.88 168.782C112.856 168.657 112.783 168.548 112.678 168.476C112.573 168.405 112.445 168.378 112.32 168.402C111.304 168.515 110.276 168.385 109.32 168.022C108.462 167.657 107.726 167.056 107.195 166.29C106.664 165.524 106.361 164.623 106.32 163.692C106.235 162.843 106.403 161.988 106.801 161.234C107.2 160.48 107.811 159.86 108.56 159.452C108.659 159.379 108.763 159.313 108.87 159.252L109 159.132L108.53 157.972L110.1 157.342C110.21 157.622 110.34 157.892 110.43 158.182C110.52 158.472 110.69 158.522 110.98 158.462C111.604 158.293 112.258 158.261 112.896 158.366C113.534 158.471 114.143 158.712 114.68 159.072C115.284 159.493 115.783 160.047 116.14 160.692L113.53 162.122ZM114.53 168.242L116.2 172.392C116.67 172.119 117.025 171.686 117.202 171.172C117.379 170.658 117.364 170.098 117.161 169.594C116.958 169.09 116.581 168.676 116.098 168.427C115.614 168.179 115.058 168.113 114.53 168.242ZM109.95 161.562C109.609 161.856 109.367 162.248 109.258 162.685C109.148 163.122 109.177 163.582 109.34 164.002C109.521 164.395 109.819 164.723 110.193 164.941C110.567 165.159 110.999 165.257 111.43 165.222L109.95 161.562Z" fill="#FFA412"/>
</g>
<path d="M119.04 170.352C119.048 170.366 119.053 170.383 119.054 170.4C119.054 170.417 119.051 170.433 119.044 170.449C119.038 170.464 119.027 170.478 119.014 170.489C119.002 170.5 118.986 170.508 118.97 170.512C118.959 170.516 118.947 170.519 118.935 170.519C118.923 170.519 118.911 170.516 118.9 170.512C117.817 170.232 116.707 170.071 115.59 170.032C115.49 170.262 117.66 170.762 117.69 171.032C117.72 171.302 115.61 170.722 115.53 170.982C115.45 171.242 117.4 171.662 117.41 171.782C117.42 171.902 115.51 171.682 115.41 171.782C115.31 171.882 117.28 172.382 117.33 172.522C117.38 172.662 115.89 172.792 115.89 172.922C115.89 173.052 115.89 173.142 119.3 173.802L120.67 174.002L121.87 173.562L121.93 172.022C120.92 170.858 119.848 169.75 118.72 168.702C118.51 168.722 118.5 168.882 119.07 170.352" fill="#FFC0BB"/>
<path d="M140.09 156.622C140.09 156.622 146.92 164.862 145.99 179.352C145.06 193.842 144.9 193.952 144.9 193.952C142.26 193.6 139.75 192.593 137.6 191.022C135.459 189.381 133.145 187.979 130.7 186.842L133.22 178.662C131.295 178.703 129.377 178.399 127.56 177.762C125.18 176.762 120.21 174.102 120.21 174.102C120.381 172.996 120.693 171.917 121.14 170.892C121.14 170.892 127.46 172.832 130.63 172.892C130.63 172.892 134.33 161.502 140.09 156.652" fill="#098AD3"/>
<path d="M139.6 159.262C138.564 160.167 137.595 161.147 136.7 162.192C135.801 163.236 134.963 164.331 134.19 165.472L133.9 165.902L133.62 166.342L133.09 167.222C132.99 167.372 132.92 167.522 132.83 167.672L132.59 168.122L132.34 168.582C132.26 168.732 132.19 168.892 132.12 169.042L131.67 169.982L131.28 170.932L131.09 171.412L130.93 171.902C130.82 172.232 130.72 172.562 130.61 172.902C130.74 172.582 130.87 172.262 130.99 171.902L131.18 171.422L131.39 170.962L131.81 170.022L132.32 169.122L132.55 168.672L132.81 168.222L133.06 167.772C133.139 167.621 133.226 167.474 133.32 167.332L133.86 166.462C133.94 166.312 134.04 166.172 134.13 166.032L134.42 165.602C135.18 164.472 136 163.372 136.87 162.312L137.54 161.532C137.76 161.272 137.99 161.012 138.22 160.762C138.67 160.242 139.15 159.762 139.64 159.272" fill="#0053C9"/>
<path d="M142.55 165.012C141.99 166.282 141.39 167.522 140.77 168.762C140.45 169.382 140.14 169.992 139.77 170.602C139.4 171.212 139.11 171.812 138.77 172.402C138.43 172.992 138.06 173.582 137.67 174.152C137.48 174.442 137.28 174.722 137.08 175.002C136.888 175.289 136.681 175.566 136.46 175.832C136.038 176.378 135.576 176.892 135.08 177.372C134.593 177.86 134.037 178.274 133.43 178.602C134.062 178.308 134.645 177.921 135.16 177.452C135.68 176.988 136.162 176.483 136.6 175.942C137.05 175.412 137.46 174.842 137.85 174.282C138.24 173.722 138.62 173.112 138.97 172.522C139.68 171.322 140.32 170.092 140.97 168.842C141.59 167.601 142.132 166.321 142.59 165.012" fill="#0053C9"/>
<path d="M129.32 144.232C130.094 142.712 131.416 141.543 133.02 140.962C134.674 140.282 136.523 140.25 138.2 140.872C142.91 142.642 141.97 147.872 141.75 148.802C141.434 148.738 141.106 148.795 140.83 148.962C140.688 149.033 140.557 149.124 140.44 149.232C139.53 148.952 139.25 147.432 138.78 146.702C138.13 145.702 135.64 146.702 134.56 145.942C133.99 145.622 133.551 145.112 133.32 144.502C129.18 145.162 129.49 149.832 129.49 149.832C129.31 149.832 128.89 149.122 128.89 149.122C128.89 149.122 127.89 147.432 129.34 144.232" fill="#2C3A64"/>
<path d="M254.73 181.122L245.87 186.692L245.21 239.012L246.98 240.222L248.71 239.842L253.71 205.442L257.81 183.232L254.73 181.122Z" fill="#FFC0BB"/>
<path d="M272.72 232.441C270.21 225.868 266.53 219.804 261.86 214.541C261.86 214.541 263.16 211.051 264.49 199.541C265.82 188.031 260.2 180.771 260.2 180.771L250.27 183.771C250.27 183.771 255.32 213.981 256.14 215.901C256.77 217.401 264.86 228.221 268.34 232.841V232.931L269.9 234.931L271.39 236.831L273.14 236.031L273.45 233.841L272.72 232.441Z" fill="#FFC0BB"/>
<path d="M245.87 185.982C245.87 185.982 243.54 203.742 243.8 216.982C243.8 216.982 252.8 218.402 259.39 217.902L259.67 210.312L261.09 217.472C261.09 217.472 264.35 217.332 265.84 216.132C265.325 211.681 265.115 207.201 265.21 202.722C265.48 196.892 265.21 189.562 263.31 184.722C261.41 179.882 250.73 185.192 250.73 185.192L245.87 185.982Z" fill="#163744"/>
<path d="M257.87 141.251C259.097 142.23 260.019 143.538 260.53 145.021C261.05 146.911 263.39 146.581 264.85 149.101C266.47 151.901 268.78 156.101 263.49 158.921C260.2 160.671 254.97 162.031 253.79 160.841C252.61 159.651 249.79 160.131 250.41 147.681C250.41 147.681 258.14 143.311 258.22 143.281C258.144 142.609 258.031 141.941 257.88 141.281" fill="#2C3A64"/>
<path d="M247.58 176.891L248.52 172.821L246.17 166.501C245.31 169.733 244.235 172.904 242.95 175.991L235.85 176.861L234.32 177.121C234.32 177.121 244.03 182.661 246.66 178.581L247.12 178.691L247.37 177.611C247.51 177.379 247.621 177.131 247.7 176.871L247.58 176.891Z" fill="#24B5E9"/>
<path d="M256.61 154.842L256.42 157.842L252.34 158.692H251.62L251.77 155.112L256.09 153.582L256.61 154.842Z" fill="#FFC0BB"/>
<path d="M250.21 159.632C250.03 161.632 250.86 162.012 250.86 162.012L257.01 157.452C253.19 157.822 250.72 158.232 250.72 158.232C250.72 158.232 250.41 159.692 250.21 159.632Z" fill="#FFC0BB"/>
<path d="M260.42 148.341C260.42 148.341 261.68 143.181 258.69 141.251C257.479 140.421 256.067 139.93 254.602 139.832C253.136 139.733 251.671 140.03 250.36 140.691C248.2 141.851 246.9 145.881 247.87 148.191L255.05 145.991L260.42 148.341Z" fill="#2C3A64"/>
<path d="M256.69 154.062C256.69 154.062 256.61 154.932 256.53 156.012C254.98 157.712 252.07 157.132 251.69 157.012V155.372L256.69 154.062Z" fill="#F99893"/>
<path d="M248.81 149.121C248.837 149.327 248.805 149.536 248.719 149.724C248.632 149.912 248.494 150.072 248.32 150.185C248.147 150.298 247.945 150.36 247.738 150.364C247.531 150.367 247.327 150.312 247.15 150.205C246.972 150.098 246.829 149.942 246.736 149.757C246.643 149.572 246.604 149.364 246.624 149.158C246.644 148.952 246.722 148.756 246.849 148.592C246.975 148.428 247.146 148.303 247.34 148.231C247.653 148.161 247.98 148.215 248.254 148.38C248.528 148.546 248.727 148.812 248.81 149.121Z" fill="#F99893"/>
<path d="M248.87 153.122C248.698 152.805 248.564 152.469 248.47 152.122C248.192 151.263 248.028 150.373 247.98 149.472C247.98 149.292 247.98 149.122 247.98 148.942C247.832 147.471 248.259 146 249.172 144.838C250.085 143.675 251.412 142.911 252.876 142.706C254.339 142.5 255.826 142.869 257.023 143.735C258.221 144.601 259.037 145.897 259.3 147.352C259.35 147.683 259.37 148.017 259.36 148.352C259.527 148.253 259.715 148.197 259.909 148.188C260.102 148.179 260.295 148.218 260.47 148.302C260.648 148.442 260.796 148.616 260.906 148.814C261.016 149.012 261.086 149.23 261.111 149.455C261.136 149.68 261.116 149.908 261.053 150.126C260.989 150.343 260.883 150.546 260.74 150.722C260.536 150.975 260.264 151.166 259.956 151.272C259.649 151.379 259.317 151.396 259 151.322C258.904 151.281 258.816 151.223 258.74 151.152C258.583 152.486 257.93 153.713 256.912 154.589C255.893 155.465 254.583 155.926 253.24 155.882C251.942 155.813 250.719 155.251 249.82 154.312C249.752 154.254 249.688 154.19 249.63 154.122C249.347 153.822 249.105 153.486 248.91 153.122" fill="#FFC0BB"/>
<path d="M263.67 166.332C263.534 166.196 263.41 166.049 263.3 165.892C263.187 165.738 263.084 165.577 262.99 165.412C262.9 165.242 262.81 165.062 262.74 164.892C262.663 164.709 262.596 164.522 262.54 164.332C262.568 164.528 262.611 164.722 262.67 164.912C262.697 165.007 262.731 165.1 262.77 165.192C262.77 165.282 262.85 165.372 262.89 165.462C262.978 165.638 263.078 165.809 263.19 165.972C263.279 166.104 263.379 166.227 263.49 166.342C263.39 166.351 263.29 166.351 263.19 166.342C263.05 166.356 262.91 166.356 262.77 166.342H262.56C262.491 166.332 262.423 166.312 262.36 166.282C262.223 166.235 262.092 166.171 261.97 166.092C262.079 166.192 262.204 166.273 262.34 166.332C262.472 166.402 262.613 166.453 262.76 166.482C262.906 166.502 263.054 166.502 263.2 166.482C263.35 166.496 263.5 166.496 263.65 166.482H263.76L263.67 166.332Z" fill="white"/>
<path d="M252.02 148.931C251.869 149.175 251.735 149.429 251.62 149.691C251.499 149.953 251.399 150.224 251.32 150.501C251.278 150.641 251.251 150.786 251.24 150.931V151.191H251.29L251.38 151.251C251.506 151.326 251.64 151.386 251.78 151.431C251.916 151.482 252.057 151.519 252.2 151.541C251.941 151.432 251.693 151.298 251.46 151.141L251.38 151.081C251.365 151.029 251.365 150.974 251.38 150.921C251.396 150.786 251.423 150.652 251.46 150.521C251.54 150.251 251.63 149.981 251.72 149.711C251.81 149.441 251.91 149.181 251.99 148.901" fill="#F99893"/>
<path d="M262.69 174.862C263.164 172.067 263.498 169.25 263.69 166.422C263.69 165.422 262.54 164.022 262.48 163.232C261.977 162.829 261.579 162.311 261.32 161.722L259.54 158.032L258.36 157.452C257.902 157.392 257.438 157.392 256.98 157.452L253.93 159.752C253.51 160.059 252.986 160.19 252.471 160.117C251.955 160.044 251.489 159.773 251.17 159.362C250.931 159.035 250.792 158.646 250.77 158.242C248.1 160.392 246.3 161.352 245.93 164.802C245.67 167.202 246.93 169.242 247.12 171.532L245.92 185.992C251.744 186.039 257.563 185.618 263.32 184.732C262.845 181.467 262.634 178.17 262.69 174.872" fill="#098AD3"/>
<path d="M245.03 185.342L234.5 185.982C234.158 185.989 233.822 185.898 233.53 185.721C233.238 185.544 233.002 185.288 232.85 184.982L227.32 172.202C227.07 171.632 227.42 171.142 228.08 171.102L238.61 170.472C238.952 170.461 239.29 170.55 239.583 170.727C239.876 170.904 240.111 171.163 240.26 171.472L245.8 184.292C246.05 184.862 245.7 185.352 245.04 185.392" fill="#064C91"/>
<path d="M235.49 171.301L231.9 171.521C231.755 171.527 231.611 171.491 231.486 171.419C231.36 171.346 231.258 171.24 231.19 171.111L231.09 170.881C230.98 170.631 231.09 170.421 231.42 170.401L235 170.191C235.146 170.181 235.291 170.214 235.418 170.287C235.545 170.36 235.646 170.47 235.71 170.601L235.81 170.831C235.92 171.071 235.81 171.281 235.49 171.301Z" fill="#EEFBFF"/>
<path d="M260.03 147.632H259.9L259.81 146.512L259.31 145.512C259.31 145.512 257.31 142.732 257.31 142.662C256.789 142.283 256.237 141.949 255.66 141.662C255.57 141.662 253.47 141.962 253.47 141.962C253.47 141.962 249.79 141.162 250.41 143.222C250.723 143.948 251.196 144.595 251.793 145.114C252.391 145.634 253.097 146.012 253.86 146.222C253.548 145.684 253.383 145.073 253.38 144.452C255.096 146.168 257.135 147.528 259.38 148.452C259.547 148.353 259.735 148.297 259.929 148.288C260.122 148.279 260.315 148.318 260.49 148.402L260.03 147.632Z" fill="#2C3A64"/>
<path d="M264.52 167.422C264.52 167.422 263.02 159.202 258.44 157.492C258.205 157.404 257.955 157.363 257.704 157.371C257.453 157.38 257.206 157.438 256.978 157.542C256.749 157.646 256.544 157.794 256.372 157.977C256.201 158.161 256.068 158.377 255.98 158.612C255.901 158.819 255.86 159.04 255.86 159.262C255.86 161.162 261.67 175.172 261.07 175.892C260.26 176.892 245.33 180.392 244.83 180.512L243.05 180.342C242.022 180.208 240.986 180.145 239.95 180.152C239.83 180.302 239.95 180.452 241.47 181.152C241.487 181.16 241.501 181.172 241.513 181.186C241.525 181.2 241.534 181.217 241.54 181.234C241.545 181.252 241.547 181.271 241.546 181.289C241.544 181.307 241.539 181.325 241.53 181.342C241.526 181.355 241.52 181.367 241.511 181.377C241.503 181.387 241.492 181.396 241.48 181.402C240.74 181.852 238.42 183.302 238.48 183.512C238.54 183.722 240.67 182.512 240.86 182.692C241.05 182.872 238.97 184.002 239.1 184.262C239.23 184.522 241.1 183.402 241.2 183.492C241.3 183.582 239.63 184.842 239.62 185.042C239.61 185.242 241.55 184.112 241.7 184.192C241.85 184.272 240.76 185.492 240.85 185.592C240.94 185.692 240.58 185.852 243.85 183.792C243.85 183.792 244.65 183.252 244.94 183.032C244.94 183.032 263.48 180.412 264.63 178.952C266.77 176.222 264.55 167.392 264.55 167.392" fill="#FFC0BB"/>
<path d="M264.52 167.421C264.52 167.421 263.02 159.201 258.43 157.491C258.196 157.403 257.946 157.363 257.696 157.371C257.446 157.38 257.2 157.438 256.972 157.542C256.745 157.646 256.54 157.794 256.369 157.978C256.199 158.161 256.067 158.377 255.98 158.611C255.901 158.819 255.86 159.039 255.86 159.261C255.86 161.161 261.67 175.171 261.07 175.891C260.25 176.891 245.32 180.391 244.83 180.511C245.009 181.349 245.232 182.177 245.5 182.991C248.56 182.541 263.61 180.301 264.65 178.991C266.78 176.271 264.56 167.441 264.56 167.441" fill="#24B5E9"/>
<path d="M241.89 240.272L245.55 238.012L248.72 239.922L247.62 240.702L243.78 241.242C243.78 241.242 242.28 241.052 242.22 241.012C242.089 240.773 241.982 240.522 241.9 240.262" fill="#FFC0BB"/>
<path d="M241.89 240.271L240.96 240.871C240.867 240.931 240.796 241.018 240.757 241.121C240.718 241.224 240.714 241.336 240.744 241.442C240.774 241.548 240.838 241.641 240.926 241.708C241.013 241.774 241.12 241.81 241.23 241.811H248.23C248.349 241.811 248.464 241.764 248.548 241.68C248.633 241.595 248.68 241.481 248.68 241.361V239.921C243.99 241.391 242.38 240.921 241.85 240.271" fill="#063E70"/>
<path d="M270.43 239.922L270.33 235.422L273.45 233.802L273.6 235.142L272.2 238.762C272.2 238.762 271.3 239.972 271.2 240.012C270.931 240.002 270.664 239.972 270.4 239.922" fill="#FFC0BB"/>
<path d="M270.42 239.922L270.49 241.021C270.494 241.089 270.511 241.154 270.54 241.215C270.569 241.275 270.61 241.329 270.66 241.374C270.711 241.418 270.769 241.452 270.832 241.474C270.896 241.496 270.963 241.506 271.03 241.502C271.114 241.499 271.196 241.474 271.268 241.43C271.34 241.386 271.399 241.325 271.44 241.252L274.9 235.132C274.958 235.028 274.972 234.906 274.94 234.792C274.909 234.677 274.833 234.58 274.73 234.521L273.45 233.792C272.45 238.602 271.25 239.792 270.45 239.922" fill="#063E70"/>
<path d="M203.79 129.711L197.51 127.291C197.435 127.262 197.375 127.205 197.342 127.133C197.308 127.06 197.304 126.977 197.33 126.901V126.781C197.344 126.745 197.366 126.711 197.393 126.682C197.421 126.654 197.453 126.631 197.49 126.615C197.526 126.6 197.565 126.591 197.604 126.59C197.644 126.59 197.683 126.597 197.72 126.611L203.99 129.031C204.028 129.045 204.062 129.066 204.092 129.093C204.122 129.12 204.145 129.152 204.162 129.188C204.179 129.225 204.188 129.264 204.19 129.304C204.191 129.344 204.184 129.384 204.17 129.421V129.541C204.141 129.616 204.084 129.676 204.011 129.71C203.939 129.743 203.856 129.748 203.78 129.721" fill="white"/>
<path d="M198.61 124.521L197.61 126.341C197.49 126.571 197.54 126.841 197.71 126.901L203.71 129.231C203.797 129.261 203.891 129.264 203.979 129.241C204.068 129.218 204.148 129.17 204.21 129.101C204.317 128.979 204.389 128.829 204.417 128.669C204.446 128.508 204.429 128.343 204.37 128.191C204.12 127.191 202.37 126.341 201.81 125.351L199 124.271C198.906 124.251 198.808 124.265 198.723 124.311C198.639 124.357 198.574 124.431 198.54 124.521" fill="#235347"/>
<path d="M201.03 126.302C201.01 126.278 200.998 126.248 200.998 126.217C200.998 126.185 201.01 126.155 201.03 126.132C201.217 125.918 201.471 125.773 201.75 125.721C202.029 125.668 202.318 125.711 202.57 125.842C202.587 125.863 202.596 125.889 202.596 125.917C202.596 125.944 202.587 125.97 202.57 125.992C202.57 126.052 202.48 126.072 202.45 126.052C202.231 125.928 201.976 125.886 201.73 125.931C201.483 125.977 201.26 126.108 201.1 126.302C201.086 126.313 201.068 126.319 201.05 126.319C201.032 126.319 201.014 126.313 201 126.302" fill="white"/>
<path d="M201.56 126.792C201.543 126.767 201.534 126.737 201.534 126.707C201.534 126.676 201.543 126.647 201.56 126.622C201.744 126.403 201.998 126.255 202.278 126.203C202.559 126.15 202.849 126.195 203.1 126.332C203.117 126.353 203.126 126.379 203.126 126.407C203.126 126.434 203.117 126.46 203.1 126.482C203.1 126.542 203.02 126.562 202.98 126.542C202.762 126.419 202.508 126.376 202.262 126.42C202.016 126.464 201.792 126.592 201.63 126.782C201.624 126.788 201.616 126.794 201.607 126.797C201.599 126.801 201.589 126.803 201.58 126.803C201.571 126.803 201.561 126.801 201.553 126.797C201.544 126.794 201.537 126.788 201.53 126.782" fill="white"/>
<path d="M202.05 127.252C202.031 127.227 202.021 127.197 202.021 127.167C202.021 127.136 202.031 127.106 202.05 127.082C202.232 126.864 202.484 126.716 202.763 126.664C203.042 126.611 203.331 126.656 203.58 126.792C203.599 126.812 203.61 126.839 203.61 126.867C203.61 126.894 203.599 126.921 203.58 126.942C203.576 126.953 203.569 126.963 203.561 126.972C203.552 126.981 203.542 126.988 203.531 126.992C203.519 126.997 203.507 126.999 203.495 126.999C203.483 126.999 203.471 126.996 203.46 126.992C203.24 126.872 202.986 126.832 202.741 126.877C202.495 126.923 202.272 127.051 202.11 127.242C202.103 127.248 202.096 127.254 202.087 127.257C202.079 127.261 202.069 127.263 202.06 127.263C202.051 127.263 202.041 127.261 202.033 127.257C202.024 127.254 202.017 127.248 202.01 127.242" fill="white"/>
<g opacity="0.3">
<mask id="mask9_5602_1236" style="mask-type:luminance" maskUnits="userSpaceOnUse" x="197" y="125" width="3" height="3">
<path d="M199.37 125.171H197.58V127.531H199.37V125.171Z" fill="white"/>
</mask>
<g mask="url(#mask9_5602_1236)">
<path d="M199.32 127.531C199.44 125.791 198.69 125.311 198.23 125.171L197.61 126.351C197.49 126.571 197.54 126.841 197.71 126.901L199.32 127.531Z" fill="#E87B50"/>
</g>
</g>
<path d="M197.39 129.731L190.96 127.731C190.885 127.708 190.822 127.657 190.784 127.587C190.747 127.518 190.738 127.437 190.76 127.361V127.231C190.77 127.193 190.788 127.158 190.813 127.127C190.837 127.096 190.867 127.071 190.902 127.052C190.937 127.033 190.975 127.022 191.014 127.018C191.053 127.015 191.093 127.019 191.13 127.031L197.56 129.031C197.598 129.043 197.634 129.062 197.665 129.087C197.696 129.113 197.721 129.144 197.74 129.179C197.759 129.215 197.77 129.253 197.773 129.293C197.777 129.333 197.772 129.373 197.76 129.411V129.541C197.75 129.579 197.732 129.615 197.707 129.646C197.683 129.677 197.653 129.702 197.618 129.721C197.583 129.74 197.545 129.751 197.506 129.755C197.467 129.758 197.427 129.754 197.39 129.741" fill="white"/>
<path d="M191.87 124.912L191.03 126.802C190.978 126.894 190.963 127.002 190.989 127.105C191.016 127.207 191.08 127.296 191.17 127.352L197.35 129.252C197.441 129.275 197.537 129.272 197.626 129.242C197.714 129.211 197.792 129.156 197.85 129.082C197.948 128.952 198.01 128.798 198.027 128.636C198.045 128.474 198.018 128.31 197.95 128.162C197.63 127.162 195.88 126.462 195.19 125.512L192.32 124.622C192.226 124.61 192.13 124.632 192.05 124.683C191.969 124.734 191.909 124.811 191.88 124.902" fill="#235347"/>
<path d="M194.4 126.522C194.383 126.497 194.374 126.467 194.374 126.437C194.374 126.406 194.383 126.377 194.4 126.352C194.57 126.123 194.814 125.958 195.09 125.886C195.366 125.813 195.659 125.836 195.92 125.952C195.939 125.972 195.949 125.999 195.949 126.027C195.949 126.055 195.939 126.081 195.92 126.102C195.92 126.102 195.84 126.182 195.8 126.162C195.574 126.058 195.32 126.035 195.08 126.097C194.839 126.159 194.627 126.302 194.48 126.502C194.473 126.508 194.466 126.514 194.457 126.517C194.448 126.521 194.439 126.523 194.43 126.523C194.421 126.523 194.411 126.521 194.403 126.517C194.394 126.514 194.386 126.508 194.38 126.502" fill="white"/>
<path d="M194.97 126.971C194.951 126.947 194.941 126.917 194.941 126.886C194.941 126.856 194.951 126.826 194.97 126.801C195.141 126.572 195.384 126.408 195.66 126.335C195.936 126.263 196.229 126.286 196.49 126.401C196.507 126.423 196.516 126.449 196.516 126.476C196.516 126.504 196.507 126.53 196.49 126.551C196.483 126.574 196.468 126.593 196.447 126.604C196.427 126.615 196.403 126.618 196.38 126.611C196.153 126.509 195.897 126.487 195.655 126.549C195.414 126.61 195.2 126.752 195.05 126.951C195.044 126.958 195.036 126.963 195.027 126.967C195.019 126.971 195.009 126.973 195 126.973C194.991 126.973 194.982 126.971 194.973 126.967C194.964 126.963 194.957 126.958 194.95 126.951" fill="white"/>
<path d="M195.49 127.391C195.471 127.367 195.461 127.337 195.461 127.306C195.461 127.276 195.471 127.246 195.49 127.221C195.66 126.992 195.904 126.828 196.18 126.755C196.456 126.683 196.749 126.706 197.01 126.821C197.024 126.844 197.032 126.87 197.032 126.896C197.032 126.923 197.024 126.949 197.01 126.971C197.01 127.021 196.93 127.051 196.89 127.031C196.663 126.927 196.407 126.904 196.165 126.966C195.923 127.028 195.709 127.171 195.56 127.371C195.553 127.378 195.546 127.383 195.537 127.387C195.528 127.391 195.519 127.392 195.51 127.392C195.501 127.392 195.491 127.391 195.483 127.387C195.474 127.383 195.466 127.378 195.46 127.371" fill="white"/>
<g opacity="0.3">
<mask id="mask10_5602_1236" style="mask-type:luminance" maskUnits="userSpaceOnUse" x="190" y="125" width="3" height="3">
<path d="M192.82 125.582H190.98V127.852H192.82V125.582Z" fill="white"/>
</mask>
<g mask="url(#mask10_5602_1236)">
<path d="M192.82 127.862C192.82 126.122 192.04 125.692 191.57 125.582L191.03 126.802C190.978 126.894 190.963 127.002 190.989 127.105C191.016 127.207 191.08 127.296 191.17 127.352L192.82 127.862Z" fill="#E87B50"/>
</g>
</g>
<path d="M274.86 203.972C279.991 203.972 284.15 199.812 284.15 194.682C284.15 189.551 279.991 185.392 274.86 185.392C269.729 185.392 265.57 189.551 265.57 194.682C265.57 199.812 269.729 203.972 274.86 203.972Z" fill="#00BF90"/>
<path d="M173.26 199.021H65.51V210.281H173.26V199.021Z" fill="#FCD17D"/>
<path d="M161.81 210.091H54.0599V221.351H161.81V210.091Z" fill="#FCD17D"/>
<path d="M157.12 221.161H49.37V232.421H157.12V221.161Z" fill="#FCD17D"/>
<path d="M164.88 232.231H57.13V243.491H164.88V232.231Z" fill="#FCD17D"/>
<path d="M173.2 198.631H65.45V209.891H173.2V198.631Z" fill="#FCD17D"/>
<path d="M65.45 198.631L173.21 209.891H65.45V198.631Z" fill="#FFA600"/>
<path d="M173.21 198.631V209.891L65.45 198.631H173.21Z" fill="#FFD165"/>
<path d="M77.73 198.631H74.95V209.861H77.73V198.631Z" fill="#FFD165"/>
<path d="M92.63 198.631H89.85V209.861H92.63V198.631Z" fill="#FFD165"/>
<path d="M109.28 198.631H106.5V209.861H109.28V198.631Z" fill="#FFD165"/>
<path d="M125.07 198.631H122.29V209.861H125.07V198.631Z" fill="#FFD165"/>
<path d="M143.47 198.631H140.69V209.861H143.47V198.631Z" fill="#FFD165"/>
<path d="M161.81 210.091H54.0599V221.351H161.81V210.091Z" fill="#FCD17D"/>
<path d="M54.0599 210.122L161.81 221.382H54.0599V210.122Z" fill="#FFA600"/>
<path d="M161.81 210.122V221.382L54.0599 210.122H161.81Z" fill="#FFD165"/>
<path d="M66.3399 210.091H63.5599V221.321H66.3399V210.091Z" fill="#FFD165"/>
<path d="M81.24 210.091H78.46V221.321H81.24V210.091Z" fill="#FFD165"/>
<path d="M97.89 210.091H95.11V221.321H97.89V210.091Z" fill="#FFD165"/>
<path d="M113.67 210.091H110.89V221.321H113.67V210.091Z" fill="#FFD165"/>
<path d="M132.08 210.091H129.3V221.321H132.08V210.091Z" fill="#FFD165"/>
<path d="M150.04 210.091H147.26V221.321H150.04V210.091Z" fill="#FFD165"/>
<path d="M157.12 221.551H49.37V232.811H157.12V221.551Z" fill="#FCD17D"/>
<path d="M49.37 221.551L157.12 232.811H49.37V221.551Z" fill="#FFA600"/>
<path d="M157.12 221.551V232.811L49.37 221.551H157.12Z" fill="#FFD165"/>
<path d="M61.64 221.551H58.86V232.781H61.64V221.551Z" fill="#FFD165"/>
<path d="M76.55 221.551H73.77V232.781H76.55V221.551Z" fill="#FFD165"/>
<path d="M93.2 221.551H90.42V232.781H93.2V221.551Z" fill="#FFD165"/>
<path d="M108.98 221.551H106.2V232.781H108.98V221.551Z" fill="#FFD165"/>
<path d="M127.38 221.551H124.6V232.781H127.38V221.551Z" fill="#FFD165"/>
<path d="M145.35 221.551H142.57V232.781H145.35V221.551Z" fill="#FFD165"/>
<path d="M164.88 232.872H57.13V244.132H164.88V232.872Z" fill="#FCD17D"/>
<path d="M57.13 232.872L164.88 244.122H57.13V232.872Z" fill="#FFA600"/>
<path d="M164.88 232.872V244.122L57.12 232.872H164.88Z" fill="#FFD165"/>
<path d="M69.41 232.872H66.63V244.102H69.41V232.872Z" fill="#FFD165"/>
<path d="M84.31 232.872H81.53V244.102H84.31V232.872Z" fill="#FFD165"/>
<path d="M100.96 232.872H98.1801V244.102H100.96V232.872Z" fill="#FFD165"/>
<path d="M116.74 232.872H113.96V244.102H116.74V232.872Z" fill="#FFD165"/>
<path d="M135.14 232.872H132.36V244.102H135.14V232.872Z" fill="#FFD165"/>
<path d="M153.11 232.872H150.33V244.102H153.11V232.872Z" fill="#FFD165"/>
</g>
</svg>
