<svg width="375" height="339" viewBox="0 0 375 339" fill="none" xmlns="http://www.w3.org/2000/svg">
<mask id="mask0_5602_1235" style="mask-type:luminance" maskUnits="userSpaceOnUse" x="0" y="0" width="375" height="339">
<path d="M375 0H0V339H375V0Z" fill="white"/>
</mask>
<g mask="url(#mask0_5602_1235)">
<path opacity="0.05" d="M-153.167 276.374C-77.251 248.497 -20.4498 209.674 139.17 262.158C295.195 317.522 342.65 355.629 515.93 320.398C589.401 305.46 670.608 256.857 699.996 199.605C739.703 122.248 687.054 27.7621 569.856 53.6461C492.203 68.7461 498.72 143.751 321.798 101.1C144.876 58.4491 121.698 -28.4999 -124.733 31.5271C-371.164 91.5541 -336.408 205.29 -336.408 205.29C-336.408 205.29 -315.872 347.459 -153.167 276.374Z" fill="#098AD3"/>
</g>
<path d="M301.51 175.582H127.06C121.537 175.582 117.06 180.059 117.06 185.582V274.522C117.06 280.045 121.537 284.522 127.06 284.522H301.51C307.033 284.522 311.51 280.045 311.51 274.522V185.582C311.51 180.059 307.033 175.582 301.51 175.582Z" fill="white"/>
<path opacity="0.3" d="M142.83 190.812H129.94V269.292H142.83V190.812Z" fill="#FFC53E"/>
<path opacity="0.3" d="M188.51 190.812H174.45V269.292H188.51V190.812Z" fill="#FFC53E"/>
<path opacity="0.3" d="M166.26 190.812H152.2V269.292H166.26V190.812Z" fill="#FFC53E"/>
<path opacity="0.3" d="M210.77 190.812H196.71V269.292H210.77V190.812Z" fill="#FFC53E"/>
<path opacity="0.3" d="M231.86 190.812H218.97V269.292H231.86V190.812Z" fill="#FFC53E"/>
<path d="M142.83 232.982H129.94V269.292H142.83V232.982Z" fill="#FFC53E"/>
<path d="M188.51 250.552H174.45V269.292H188.51V250.552Z" fill="#FFC53E"/>
<path d="M166.26 242.352H152.2V269.292H166.26V242.352Z" fill="#FFC53E"/>
<path d="M210.77 240.012H196.71V269.292H210.77V240.012Z" fill="#FFC53E"/>
<path d="M231.86 230.642H218.97V269.292H231.86V230.642Z" fill="#FFC53E"/>
<path d="M289.25 190.812H244.74V197.842H289.25V190.812Z" fill="#00BF90"/>
<path opacity="0.3" d="M299.79 204.872H244.74V211.902H299.79V204.872Z" fill="#00BF90"/>
<path opacity="0.3" d="M299.79 216.582H244.74V222.442H299.79V216.582Z" fill="#00BF90"/>
<path opacity="0.3" d="M299.79 225.952H244.74V232.982H299.79V225.952Z" fill="#00BF90"/>
<path opacity="0.3" d="M299.79 237.672H244.74V244.702H299.79V237.672Z" fill="#00BF90"/>
<path d="M233.39 60.8823H73C67.4772 60.8823 63 65.3595 63 70.8823V183.252C63 188.775 67.4772 193.252 73 193.252H233.39C238.913 193.252 243.39 188.775 243.39 183.252V70.8823C243.39 65.3595 238.913 60.8823 233.39 60.8823Z" fill="white"/>
<path d="M110.59 158.412C127.904 158.412 141.94 144.377 141.94 127.062C141.94 109.748 127.904 95.7124 110.59 95.7124C93.2759 95.7124 79.24 109.748 79.24 127.062C79.24 144.377 93.2759 158.412 110.59 158.412Z" fill="#00BF90"/>
<path d="M110.7 95.6421C124.64 95.7621 142.4 103.642 142.97 127.062H110.59C110.59 127.062 110.7 101.082 110.7 95.6421Z" fill="#FFC53E"/>
<path d="M110.59 158.572C116.67 158.942 140.19 154.573 142.97 127.062H110.59V158.572Z" fill="#B0D8EE"/>
<path d="M209.59 91.3325H155.71V99.5325H209.59V91.3325Z" fill="#098AD3"/>
<path opacity="0.3" d="M223.48 107.732H156.71V115.932H223.48V107.732Z" fill="#098AD3"/>
<path opacity="0.3" d="M223.48 121.792H156.71V128.822H223.48V121.792Z" fill="#098AD3"/>
<path opacity="0.3" d="M223.48 133.502H156.71V141.702H223.48V133.502Z" fill="#098AD3"/>
<path opacity="0.3" d="M223.48 147.562H156.71V155.762H223.48V147.562Z" fill="#098AD3"/>
<path d="M312.68 125.352L265.18 141.082L274.72 149.082L233.62 192.082L197.59 161.082L99.0601 242.212L107.7 246.922L120.12 252.422L197.24 191.802L235.24 224.412L292.83 164.082L303.13 172.662L312.68 125.352Z" fill="#1B404F"/>
<path d="M197.63 155.602C197.681 155.495 197.745 155.395 197.82 155.302C197.873 155.238 197.933 155.181 198 155.132L198.27 154.852L198.34 154.912C199.71 154.232 202.56 154.912 205.43 156.822C208.9 159.092 211.13 162.222 210.49 163.872L210.59 163.952L210.21 164.332L210.15 164.392C210.047 164.484 209.933 164.561 209.81 164.622C208.45 165.332 205.58 164.622 202.68 162.732C199.13 160.432 196.87 157.232 197.63 155.602Z" fill="#FFA412"/>
<path d="M205.84 156.402C202.3 154.092 198.84 153.552 198.04 155.182C197.24 156.812 199.53 160.012 203.04 162.322C206.55 164.632 210.04 165.182 210.83 163.552C211.62 161.922 209.39 158.722 205.84 156.402Z" fill="#FFC53E"/>
<path d="M203.27 161.872C201.888 160.989 200.67 159.872 199.67 158.572C198.82 157.392 198.52 156.362 198.84 155.662C198.929 155.482 199.056 155.324 199.214 155.199C199.371 155.075 199.554 154.987 199.75 154.942C201.06 154.562 203.37 155.282 205.65 156.772C207.031 157.649 208.246 158.763 209.24 160.062C210.1 161.242 210.39 162.282 210.07 162.972C209.984 163.155 209.858 163.316 209.7 163.443C209.542 163.57 209.358 163.658 209.16 163.702C208.909 163.77 208.65 163.804 208.39 163.802C206.543 163.622 204.777 162.956 203.27 161.872ZM199.82 155.192C199.66 155.225 199.511 155.295 199.382 155.395C199.254 155.496 199.15 155.625 199.08 155.772C198.8 156.372 199.08 157.332 199.88 158.422C200.859 159.697 202.054 160.79 203.41 161.652C204.882 162.709 206.607 163.361 208.41 163.542C208.646 163.543 208.882 163.513 209.11 163.452C209.272 163.417 209.423 163.346 209.553 163.243C209.683 163.141 209.788 163.011 209.86 162.862C210.13 162.262 209.86 161.302 209.05 160.222C208.077 158.945 206.886 157.852 205.53 156.992C204.059 155.932 202.334 155.28 200.53 155.102C200.294 155.094 200.058 155.121 199.83 155.182L199.82 155.192Z" fill="#FFA412"/>
<path d="M218.64 107.082C218.677 107.008 218.721 106.938 218.77 106.872C218.808 106.827 218.852 106.787 218.9 106.752L219.09 106.552H219.14C220.14 106.072 222.14 106.552 224.14 107.912C226.6 109.522 228.19 111.742 227.73 112.912L227.8 112.962L227.53 113.232H227.48L227.24 113.402C226.24 113.902 224.24 113.402 222.17 112.052C219.69 110.542 218.1 108.272 218.64 107.082Z" fill="#FFA412"/>
<path d="M224.47 107.682C221.96 106.042 219.47 105.682 218.93 106.822C218.39 107.962 219.99 110.252 222.49 111.892C224.99 113.532 227.49 113.892 228.03 112.762C228.57 111.632 226.98 109.332 224.47 107.682Z" fill="#FFC53E"/>
<path d="M222.64 111.562C221.661 110.936 220.798 110.144 220.09 109.222C219.48 108.382 219.27 107.652 219.5 107.152C219.565 107.027 219.655 106.917 219.766 106.829C219.876 106.741 220.003 106.677 220.14 106.642C221.07 106.372 222.71 106.882 224.33 107.942C225.312 108.565 226.176 109.357 226.88 110.282C227.49 111.112 227.7 111.852 227.47 112.342C227.407 112.469 227.317 112.582 227.206 112.671C227.096 112.761 226.968 112.826 226.83 112.862C226.647 112.911 226.459 112.934 226.27 112.932C224.961 112.803 223.708 112.331 222.64 111.562ZM220.19 106.822C220.076 106.847 219.968 106.898 219.876 106.971C219.785 107.044 219.711 107.136 219.66 107.242C219.47 107.662 219.66 108.352 220.24 109.122C220.936 110.023 221.782 110.798 222.74 111.412C223.784 112.158 225.004 112.619 226.28 112.752C226.449 112.753 226.618 112.729 226.78 112.682C226.892 112.658 226.998 112.609 227.088 112.538C227.178 112.467 227.251 112.376 227.3 112.272C227.5 111.842 227.3 111.162 226.73 110.392C226.04 109.486 225.193 108.711 224.23 108.102C223.189 107.349 221.968 106.884 220.69 106.752C220.521 106.751 220.353 106.775 220.19 106.822Z" fill="#FFA412"/>
<path d="M227.66 172.942C227.626 172.863 227.583 172.79 227.53 172.722L227.4 172.592L227.2 172.392H227.15C226.15 171.902 224.06 172.392 221.96 173.782C219.42 175.442 217.79 177.722 218.26 178.942H218.19L218.47 179.222C218.544 179.291 218.629 179.348 218.72 179.392C219.72 179.912 221.81 179.392 223.93 178.012C226.58 176.472 228.22 174.142 227.66 172.942Z" fill="#FFA412"/>
<path d="M221.66 173.532C224.25 171.842 226.79 171.442 227.36 172.642C227.93 173.842 226.27 176.172 223.69 177.862C221.11 179.552 218.55 179.952 217.99 178.752C217.43 177.552 219.08 175.222 221.66 173.532Z" fill="#FFC53E"/>
<path d="M219.8 178.932C219.608 178.939 219.415 178.915 219.23 178.862C219.088 178.827 218.955 178.762 218.841 178.67C218.727 178.579 218.635 178.463 218.57 178.332C218.33 177.822 218.57 177.072 219.18 176.212C219.904 175.257 220.795 174.44 221.81 173.802C223.47 172.722 225.16 172.192 226.12 172.462C226.262 172.497 226.395 172.562 226.509 172.654C226.623 172.745 226.716 172.861 226.78 172.992C227.01 173.502 226.78 174.262 226.17 175.122C225.441 176.07 224.551 176.883 223.54 177.522C222.444 178.322 221.151 178.81 219.8 178.932ZM225.55 172.582C224.235 172.708 222.978 173.185 221.91 173.962C220.922 174.588 220.052 175.384 219.34 176.312C218.76 177.102 218.55 177.812 218.75 178.252C218.8 178.36 218.876 178.454 218.969 178.527C219.063 178.6 219.173 178.65 219.29 178.672C219.456 178.72 219.628 178.744 219.8 178.742C221.114 178.612 222.37 178.135 223.44 177.362C224.432 176.733 225.305 175.934 226.02 175.002C226.6 174.212 226.81 173.502 226.61 173.072C226.557 172.964 226.48 172.868 226.384 172.794C226.289 172.72 226.178 172.668 226.06 172.642C225.895 172.592 225.722 172.571 225.55 172.582Z" fill="#FFA412"/>
<path d="M198.39 126.572C198.414 126.525 198.444 126.481 198.48 126.442L198.56 126.362L198.67 126.242C199.28 125.942 200.54 126.242 201.82 127.092C203.36 128.092 204.35 129.492 204.07 130.232L203.9 130.402C203.856 130.443 203.805 130.477 203.75 130.502C203.15 130.812 201.87 130.502 200.58 129.662C199.02 128.722 198.02 127.302 198.39 126.572Z" fill="#FFA412"/>
<path d="M202 126.932C200.43 125.932 198.88 125.662 198.54 126.382C198.2 127.102 199.2 128.532 200.77 129.562C202.34 130.592 203.9 130.832 204.24 130.102C204.58 129.372 203.58 127.962 202 126.932Z" fill="#FFC53E"/>
<path d="M200.86 129.352C200.247 128.961 199.706 128.467 199.26 127.892C198.88 127.372 198.75 126.892 198.89 126.602C198.929 126.523 198.986 126.453 199.055 126.398C199.124 126.343 199.204 126.303 199.29 126.282C200.237 126.213 201.176 126.502 201.92 127.092C202.533 127.487 203.075 127.984 203.52 128.562C203.9 129.082 204.03 129.562 203.89 129.852C203.851 129.931 203.794 130.001 203.725 130.056C203.656 130.111 203.576 130.151 203.49 130.172C203.374 130.187 203.256 130.187 203.14 130.172C202.32 130.111 201.531 129.828 200.86 129.352ZM199.33 126.352C199.259 126.367 199.192 126.399 199.135 126.444C199.078 126.489 199.032 126.546 199 126.612C198.88 126.872 199 127.302 199.36 127.782C199.789 128.352 200.318 128.84 200.92 129.222C201.573 129.693 202.339 129.982 203.14 130.062C203.243 130.077 203.347 130.077 203.45 130.062C203.52 130.045 203.586 130.012 203.643 129.968C203.7 129.923 203.747 129.866 203.78 129.802C203.9 129.532 203.78 129.102 203.42 128.622C202.986 128.056 202.454 127.572 201.85 127.192C201.2 126.722 200.438 126.432 199.64 126.352C199.535 126.351 199.431 126.364 199.33 126.392V126.352Z" fill="#FFA412"/>
<path d="M106.87 169.312C106.826 169.223 106.773 169.139 106.71 169.062C106.665 169.007 106.615 168.957 106.56 168.912L106.33 168.682H106.27C105.11 168.122 102.73 168.682 100.27 170.292C97.35 172.202 95.47 174.822 96.02 176.222L95.93 176.282L96.26 176.612H96.31C96.3959 176.693 96.4937 176.761 96.6 176.812C97.74 177.412 100.16 176.812 102.6 175.222C105.62 173.372 107.51 170.682 106.87 169.312Z" fill="#FFA412"/>
<path d="M99.97 169.992C102.97 168.052 105.88 167.592 106.52 168.992C107.16 170.392 105.27 173.052 102.3 174.992C99.33 176.932 96.39 177.392 95.75 175.992C95.11 174.592 97 171.932 99.97 169.992Z" fill="#FFC53E"/>
<path d="M97.83 176.202C97.6103 176.203 97.3915 176.172 97.18 176.112C97.0141 176.075 96.8586 176.001 96.7253 175.895C96.592 175.79 96.4842 175.655 96.41 175.502C96.14 174.922 96.41 174.052 97.11 173.062C97.9401 171.97 98.9555 171.033 100.11 170.292C102.03 169.042 103.97 168.432 105.11 168.742C105.275 168.781 105.43 168.856 105.563 168.962C105.696 169.067 105.804 169.201 105.88 169.352C106.15 169.942 105.88 170.812 105.18 171.802C104.352 172.893 103.336 173.828 102.18 174.562C100.905 175.492 99.4016 176.059 97.83 176.202ZM104.44 168.892C102.928 169.04 101.483 169.585 100.25 170.472C99.0964 171.194 98.0805 172.115 97.25 173.192C96.59 174.102 96.34 174.912 96.57 175.412C96.6311 175.535 96.7183 175.642 96.8254 175.726C96.9326 175.811 97.0571 175.871 97.19 175.902C97.3825 175.954 97.5808 175.981 97.78 175.982C99.2926 175.831 100.738 175.283 101.97 174.392C103.121 173.672 104.137 172.754 104.97 171.682C105.63 170.762 105.88 169.952 105.65 169.452C105.587 169.329 105.499 169.222 105.39 169.137C105.281 169.052 105.155 168.993 105.02 168.962C104.832 168.909 104.636 168.885 104.44 168.892Z" fill="#FFA412"/>
<path d="M75.39 132.022C75.3696 131.97 75.339 131.922 75.3 131.882C75.2753 131.847 75.2448 131.817 75.21 131.792L75.08 131.662C74.41 131.332 73.02 131.662 71.61 132.602C69.91 133.712 68.82 135.232 69.13 136.052H69.08L69.27 136.242C69.32 136.291 69.3773 136.331 69.44 136.362C70.1 136.712 71.51 136.362 72.93 135.432C74.62 134.382 75.72 132.822 75.39 132.022Z" fill="#FFA412"/>
<path d="M71.33 132.422C73.06 131.292 74.77 131.032 75.14 131.822C75.51 132.612 74.41 134.182 72.68 135.322C70.95 136.462 69.24 136.712 68.87 135.922C68.5 135.132 69.59 133.552 71.33 132.422Z" fill="#FFC53E"/>
<path d="M70.0801 136.082C69.9539 136.097 69.8263 136.097 69.7001 136.082C69.6041 136.057 69.5144 136.012 69.4369 135.95C69.3594 135.888 69.2958 135.81 69.2501 135.722C69.1948 135.47 69.2033 135.208 69.2749 134.96C69.3465 134.712 69.4789 134.486 69.6601 134.302C70.1325 133.635 70.7181 133.057 71.3901 132.592C72.2081 131.943 73.2384 131.622 74.2801 131.692C74.3748 131.717 74.463 131.762 74.5389 131.825C74.6148 131.887 74.6765 131.964 74.7201 132.052C74.8801 132.392 74.7201 132.902 74.3101 133.472C73.8362 134.106 73.2539 134.651 72.5901 135.082C71.8611 135.639 70.9927 135.985 70.0801 136.082ZM73.9301 131.832C73.0481 131.918 72.2053 132.239 71.4901 132.762C70.8284 133.179 70.246 133.711 69.7701 134.332C69.3801 134.872 69.2401 135.332 69.3701 135.632C69.4047 135.706 69.4562 135.771 69.5205 135.821C69.5847 135.872 69.66 135.906 69.7401 135.922C69.8529 135.937 69.9673 135.937 70.0801 135.922C70.9614 135.834 71.8035 135.513 72.5201 134.992C73.1798 134.572 73.7618 134.041 74.2401 133.422C74.6301 132.882 74.7701 132.422 74.6401 132.122C74.6026 132.05 74.5502 131.987 74.4864 131.937C74.4226 131.887 74.3488 131.851 74.2701 131.832C74.1595 131.8 74.0452 131.783 73.9301 131.782V131.832Z" fill="#FFA412"/>
<path d="M103.8 142.842C103.831 142.776 103.868 142.712 103.91 142.652C103.944 142.613 103.981 142.576 104.02 142.542L104.19 142.372H104.24C105.1 141.952 106.87 142.372 108.67 143.572C110.84 144.992 112.23 146.942 111.84 147.982H111.9L111.65 148.232C111.589 148.293 111.518 148.344 111.44 148.382C110.59 148.822 108.8 148.382 106.98 147.192C104.73 145.862 103.32 143.862 103.8 142.842Z" fill="#FFA412"/>
<path d="M108.93 143.342C106.72 141.902 104.53 141.562 104.06 142.572C103.59 143.582 104.98 145.572 107.2 147.032C109.42 148.492 111.59 148.822 112.07 147.812C112.55 146.802 111.14 144.792 108.93 143.342Z" fill="#FFC53E"/>
<path d="M107.32 146.752C106.454 146.204 105.692 145.506 105.07 144.692C104.54 143.952 104.35 143.312 104.55 142.872C104.605 142.759 104.685 142.66 104.784 142.582C104.883 142.504 104.997 142.45 105.12 142.422C105.94 142.182 107.38 142.632 108.81 143.572C109.673 144.117 110.431 144.811 111.05 145.622C111.59 146.362 111.77 147.012 111.57 147.442C111.515 147.556 111.436 147.657 111.337 147.737C111.239 147.816 111.123 147.873 111 147.902C110.843 147.941 110.682 147.962 110.52 147.962C109.364 147.852 108.26 147.434 107.32 146.752ZM105.17 142.572C105.069 142.595 104.975 142.64 104.894 142.704C104.812 142.768 104.746 142.85 104.7 142.942C104.64 143.237 104.654 143.542 104.741 143.83C104.828 144.119 104.986 144.38 105.2 144.592C105.809 145.384 106.554 146.061 107.4 146.592C108.318 147.254 109.394 147.661 110.52 147.772C110.662 147.797 110.808 147.797 110.95 147.772C111.051 147.75 111.146 147.706 111.228 147.642C111.309 147.577 111.375 147.496 111.42 147.402C111.48 147.107 111.466 146.802 111.379 146.514C111.292 146.226 111.134 145.964 110.92 145.752C110.31 144.958 109.561 144.28 108.71 143.752C107.798 143.086 106.724 142.679 105.6 142.572C105.451 142.562 105.301 142.582 105.16 142.632L105.17 142.572Z" fill="#FFA412"/>
<path d="M104.23 206.892C104.23 206.892 103.81 204.812 108.6 198.402C109.6 197.022 112.79 191.812 112.79 191.812C114.04 191.502 117.92 193.572 118.94 194.202L119.27 194.402C119.27 194.402 120.93 201.602 117.4 200.782L117.07 200.722C113.66 200.192 110.36 203.572 108.87 205.722C107.89 207.132 104.88 206.952 104.23 206.892Z" fill="#1B506F"/>
<path d="M129.53 192.892C129.53 192.892 129.11 190.812 133.9 184.402C134.9 183.022 138.09 177.812 138.09 177.812C139.34 177.502 143.22 179.582 144.24 180.202L144.57 180.402C144.57 180.402 146.23 187.602 142.7 186.792L142.37 186.722C138.97 186.192 135.66 189.582 134.17 191.722C133.19 193.132 130.18 192.952 129.53 192.892Z" fill="#1B506F"/>
<path d="M183.53 157.252C182.53 153.032 171.65 139.902 166.06 142.942C160.47 145.982 163.38 162.502 169.2 181.992L169.47 182.882C160.953 181.601 152.374 180.763 143.77 180.372L142.3 187.152C152.87 190.072 173.41 200.222 182.03 204.592C185.32 206.092 189.19 206.092 190.03 203.192C192.61 193.492 183.53 157.252 183.53 157.252Z" fill="#047ABD"/>
<path d="M162.71 217.942C162.71 217.942 137.76 206.682 122.54 202.132C120.65 201.572 118.92 201.132 117.4 200.782L119 194.262H122.91C132.39 194.262 156.11 194.822 160.35 199.472C165.67 205.292 162.71 217.942 162.71 217.942Z" fill="#FFB27D"/>
<path d="M181.57 63.5821C182.39 65.4721 183.05 67.9421 182.49 69.2421C182.119 70.0379 181.964 70.9174 182.04 71.7921L180.69 72.0821L179.09 72.4721C179.09 72.4721 179.01 72.3421 178.88 72.1021C178.707 71.7952 178.554 71.4779 178.42 71.1521C178.38 70.9378 178.29 70.7357 178.158 70.5621C178.027 70.3885 177.856 70.2481 177.66 70.1521C177.281 69.9549 176.948 69.6788 176.684 69.3425C176.42 69.0062 176.231 68.6174 176.13 68.2021C175.99 67.4021 175.13 65.9221 175.41 65.7621C175.97 65.3921 176.81 67.7021 177.31 67.7621C177.43 67.8023 177.56 67.7957 177.675 67.7438C177.79 67.6919 177.881 67.5984 177.93 67.4821C178.7 65.5921 177.27 60.8321 178.41 60.5621C178.83 60.4921 181.22 62.7721 181.57 63.5821Z" fill="#FFB27D"/>
<path d="M95.2101 101.672C96.6001 103.182 98.6001 104.782 100.02 104.802C100.9 104.78 101.771 104.994 102.54 105.422L103.38 104.322L104.38 103.012L104.13 102.672C103.96 102.462 102.83 101.502 102.81 100.752C102.788 100.325 102.672 99.9073 102.472 99.529C102.272 99.1508 101.991 98.8208 101.65 98.5622C100.98 98.1222 99.9501 96.7722 99.7101 96.9222C99.1401 97.2822 100.91 98.9822 100.81 99.4822C100.797 99.6069 100.738 99.7219 100.643 99.8037C100.548 99.8856 100.425 99.928 100.3 99.9222C98.3001 99.8722 94.4701 96.6322 93.7701 97.5622C93.5001 97.9122 94.6201 101.022 95.2101 101.672Z" fill="#FFB27D"/>
<path d="M155.59 160.392C149.43 161.992 150.98 169.392 151.9 189.712C152 192.012 152.22 194.222 152.52 196.342C143.52 194.532 129.62 194.262 122.91 194.242C122.282 195.65 121.919 197.162 121.84 198.702C121.898 201.206 122.683 203.638 124.1 205.702C139.32 210.262 162.71 217.932 162.71 217.932C164.27 218.342 165.71 217.562 166.91 215.322C171.56 206.402 179.53 147.082 179.53 147.082C179.6 142.772 161.74 158.792 155.59 160.392Z" fill="#098AD3"/>
<path d="M145.54 114.862C145.54 114.862 147.71 109.382 143.54 101.562L149.54 102.882L153.61 103.782C154.193 105.087 154.707 106.423 155.15 107.782C155.39 108.452 156.24 111.182 156.5 112.012C157.92 112.072 155.87 114.242 152.94 114.662C150.484 114.947 148.008 115.014 145.54 114.862Z" fill="#FFB27D"/>
<path d="M153.55 103.782C154.134 105.088 154.648 106.423 155.09 107.782C151.6 108.832 145.37 105.432 145.37 105.432C146.545 104.316 147.942 103.461 149.47 102.922L153.55 103.782Z" fill="#ED975D"/>
<path d="M156.23 101.742C156.23 101.742 149.3 109.402 144.59 105.012C139.88 100.622 135.82 98.6623 140.05 93.5723C144.28 88.4823 146.95 89.2323 148.87 90.3223C150.79 91.4123 157.92 99.6323 156.23 101.742Z" fill="#FFB27D"/>
<path d="M144.2 104.542C144.2 104.542 144.91 103.752 143.89 102.732C142.87 101.712 141.69 100.232 142.83 99.7322C143.97 99.2322 144.6 99.9822 144.63 99.2522C144.66 98.5222 143.24 96.7122 145.87 94.4122C148.5 92.1122 150.37 92.1922 151.19 90.6222C152.01 89.0522 150.56 87.0822 150.56 87.0822C150.658 87.6324 150.592 88.1994 150.37 88.7122C150.37 88.7122 150.19 84.1322 146.16 84.0922C142.13 84.0522 140.66 87.3422 139.31 88.5522C136.31 91.2222 134.46 93.0122 135.07 95.8822C135.68 98.7522 140.63 104.152 144.2 104.542Z" fill="#235347"/>
<path d="M186.39 85.6419C185.45 80.734 183.971 75.945 181.98 71.3619L178.38 71.1919C178.38 71.1919 178.78 80.4119 178.69 86.8519C178.634 89.0981 178.026 91.296 176.92 93.2519C175.83 94.7519 159.39 110.612 158.8 111.082C157.05 111.382 157.24 114.262 155.44 114.752C152.44 115.552 147.44 114.082 144.77 115.072C144.77 115.072 123.39 115.152 120.09 113.592C116.79 112.032 104.09 102.662 104.09 102.662L101.79 105.412C101.79 105.412 110.51 122.192 117.39 125.212C121.15 126.862 129.39 128.842 136.16 130.302C137.471 130.585 138.682 131.213 139.67 132.12C140.658 133.027 141.386 134.18 141.78 135.462C145.592 147.661 146.668 160.55 144.93 173.212C149.535 173.532 154.16 173.052 158.6 171.792C164.547 170.129 170.259 167.72 175.6 164.622C178.38 161.252 176.74 148.912 176.74 148.912C178.058 150.502 178.94 152.408 179.3 154.442C179.76 156.932 180.01 158.312 180.16 159.182C180.185 159.328 180.239 159.469 180.319 159.594C180.399 159.72 180.502 159.828 180.624 159.914C180.746 159.999 180.883 160.06 181.028 160.092C181.173 160.124 181.324 160.128 181.47 160.102C181.642 160.072 181.803 160 181.94 159.892C183.531 158.853 184.917 157.531 186.03 155.992C188.25 151.782 183.32 134.642 176.5 122.682C175.901 121.635 175.597 120.445 175.62 119.239C175.643 118.033 175.992 116.856 176.63 115.832C180.89 109.082 187.39 98.4419 187.39 96.3019C187.272 92.7316 186.938 89.1718 186.39 85.6419Z" fill="#1B404F"/>
<path d="M154.95 116.342C154.95 116.342 160.7 124.502 156.49 132.342C152.28 140.182 135.72 139.172 132.66 149.012L134.51 155.142L141.44 151.402C141.44 151.402 142.02 146.072 148.82 143.762C162.12 139.252 165.32 131.452 162.53 124.472C161.301 121.155 159.327 118.165 156.76 115.732L154.95 116.342Z" fill="#00BF54"/>
<path d="M146.08 111.862L152.74 114.062L153.07 115.322L144.76 115.082C145.035 113.949 145.48 112.863 146.08 111.862Z" fill="#1B404F"/>
<path d="M155.83 110.022L156.05 113.472C156.05 113.472 156.92 114.182 156.91 114.092C156.9 114.002 158.79 111.092 158.79 111.092C157.833 110.658 156.843 110.3 155.83 110.022Z" fill="#1B404F"/>
<path d="M152.74 114.082L156.14 112.932C156.27 112.887 156.412 112.896 156.536 112.956C156.66 113.016 156.755 113.122 156.8 113.252C156.805 113.289 156.805 113.326 156.8 113.362L157.08 115.642C157.096 115.762 157.069 115.883 157.005 115.985C156.941 116.087 156.844 116.164 156.73 116.202L155.23 116.702C155.152 116.731 155.068 116.74 154.986 116.728C154.904 116.716 154.826 116.683 154.76 116.632L152.57 114.982C152.516 114.942 152.47 114.891 152.436 114.833C152.401 114.775 152.379 114.71 152.369 114.643C152.36 114.576 152.364 114.508 152.381 114.442C152.399 114.377 152.429 114.316 152.47 114.262C152.531 114.18 152.614 114.118 152.71 114.082H152.74Z" fill="#00BF54"/>
<path d="M178.23 70.7119L177.93 73.5719C177.93 73.5719 181.55 73.6319 181.55 73.5719C181.55 73.5119 181.66 72.1519 181.66 72.1519L182.26 73.7319L183.6 73.3019L182.06 70.7119C180.823 71.1621 179.467 71.1621 178.23 70.7119Z" fill="#FB7F28"/>
<path d="M104.13 102.662L101.78 105.402L102.47 108.082L103.47 107.422L103 105.422L104.64 106.772L106.78 103.952L104.13 102.662Z" fill="#FB7F28"/>
<path d="M103.62 105.182C103.62 105.138 103.633 105.096 103.657 105.06C103.681 105.024 103.716 104.995 103.756 104.979C103.796 104.962 103.84 104.958 103.883 104.966C103.926 104.975 103.965 104.996 103.996 105.026C104.026 105.057 104.047 105.096 104.056 105.139C104.064 105.182 104.06 105.226 104.043 105.266C104.027 105.306 103.999 105.341 103.962 105.365C103.926 105.389 103.884 105.402 103.84 105.402C103.782 105.402 103.726 105.379 103.685 105.337C103.643 105.296 103.62 105.24 103.62 105.182Z" fill="#EBF3FA"/>
<path d="M180.88 72.5119C180.88 72.4655 180.899 72.421 180.931 72.3882C180.964 72.3554 181.009 72.3369 181.055 72.3369C181.102 72.3369 181.146 72.3554 181.179 72.3882C181.212 72.421 181.23 72.4655 181.23 72.5119C181.228 72.5562 181.209 72.5981 181.178 72.6295C181.146 72.6608 181.104 72.6795 181.06 72.6819C181.014 72.682 180.97 72.6644 180.936 72.6328C180.903 72.6012 180.883 72.5579 180.88 72.5119Z" fill="#EBF3FA"/>
<path d="M175.21 139.142C175.21 139.051 175.237 138.962 175.288 138.887C175.338 138.811 175.41 138.752 175.494 138.717C175.578 138.682 175.671 138.673 175.76 138.691C175.849 138.709 175.931 138.753 175.995 138.817C176.06 138.881 176.103 138.963 176.121 139.052C176.139 139.142 176.13 139.234 176.095 139.318C176.06 139.402 176.001 139.474 175.926 139.525C175.85 139.575 175.761 139.602 175.67 139.602C175.548 139.602 175.431 139.554 175.345 139.467C175.259 139.381 175.21 139.264 175.21 139.142Z" fill="#EBF3FA"/>
<path d="M171.51 131.432C171.51 131.339 171.538 131.248 171.59 131.17C171.642 131.093 171.716 131.032 171.803 130.997C171.889 130.962 171.984 130.953 172.075 130.972C172.167 130.991 172.251 131.037 172.316 131.104C172.381 131.17 172.425 131.255 172.442 131.347C172.459 131.439 172.448 131.534 172.411 131.619C172.374 131.705 172.312 131.778 172.234 131.828C172.155 131.878 172.063 131.904 171.97 131.902C171.847 131.9 171.73 131.849 171.644 131.761C171.558 131.673 171.51 131.555 171.51 131.432Z" fill="#EBF3FA"/>
<path d="M166.39 125.622C166.388 125.528 166.414 125.436 166.465 125.357C166.516 125.278 166.589 125.217 166.675 125.18C166.762 125.143 166.857 125.133 166.949 125.151C167.041 125.168 167.126 125.213 167.192 125.28C167.259 125.346 167.304 125.431 167.321 125.523C167.339 125.615 167.329 125.71 167.292 125.797C167.255 125.883 167.194 125.956 167.115 126.007C167.036 126.058 166.944 126.084 166.85 126.082C166.729 126.079 166.613 126.03 166.528 125.944C166.442 125.859 166.393 125.743 166.39 125.622Z" fill="#EBF3FA"/>
</svg>
