<svg width="305" height="289" viewBox="0 0 305 289" fill="none" xmlns="http://www.w3.org/2000/svg">
<mask id="mask0_5602_1234" style="mask-type:luminance" maskUnits="userSpaceOnUse" x="0" y="0" width="305" height="289">
<path d="M305 0H0V289H305V0Z" fill="white"/>
</mask>
<g mask="url(#mask0_5602_1234)">
<path opacity="0.05" d="M193.55 265.374C269.466 237.497 326.267 198.674 485.887 251.158C641.912 306.522 689.367 344.629 862.647 309.398C936.118 294.46 1017.33 245.857 1046.71 188.605C1086.42 111.248 1036.18 16.2361 916.573 42.6461C836.344 65.5521 845.437 132.751 668.515 90.1001C491.593 47.4491 468.415 -39.4999 221.984 20.5271C-24.4468 80.5541 10.3091 194.29 10.3091 194.29C10.3091 194.29 30.8451 336.459 193.55 265.374Z" fill="#098AD3"/>
</g>
<path d="M148.52 256.502C148.52 256.502 148.74 251.912 146.52 250.862L146.68 250.722C147.307 250.993 147.864 251.405 148.308 251.925C148.752 252.445 149.07 253.059 149.24 253.722C149.58 254.862 149.32 255.112 149.33 255.152L148.52 256.502Z" fill="#9BBE20"/>
<path d="M133.95 244.712C133.95 244.712 134.7 250.562 138.27 252.282C141.84 254.002 146.88 250.912 146.88 250.912C146.88 250.912 146.13 245.062 142.56 243.342C138.99 241.622 133.95 244.712 133.95 244.712Z" fill="#BBD951"/>
<path d="M148.14 265.032C147.682 261.138 148.088 257.191 149.33 253.472C150.507 250.051 150.803 246.388 150.19 242.822H151.63C151.644 246.708 151.177 250.58 150.24 254.352C148.86 260.232 151.43 265.032 150.88 265.032H148.14Z" fill="#9BBE20"/>
<path d="M151.15 249.212C151.15 249.212 151.84 245.262 153.68 244.812C153.161 244.904 152.67 245.115 152.245 245.427C151.82 245.739 151.473 246.144 151.23 246.612C150.8 247.422 150.95 247.612 150.94 247.692L151.15 249.212Z" fill="#9BBE20"/>
<path d="M157.06 249.622C154.31 249.062 152.77 245.172 152.77 245.172C152.77 245.172 155.7 242.172 158.45 242.742C161.2 243.312 162.74 247.182 162.74 247.182C162.74 247.182 159.81 250.182 157.06 249.622Z" fill="#9BBE20"/>
<path d="M135.68 236.942C134.111 234.559 133.284 231.764 133.303 228.911C133.322 226.057 134.187 223.274 135.788 220.912C137.389 218.55 139.654 216.716 142.297 215.641C144.94 214.566 147.842 214.299 150.637 214.873C153.432 215.447 155.994 216.837 157.999 218.868C160.004 220.898 161.363 223.477 161.902 226.278C162.442 229.08 162.139 231.979 161.031 234.609C159.924 237.238 158.062 239.481 155.68 241.052C154.097 242.096 152.324 242.819 150.462 243.177C148.6 243.536 146.686 243.524 144.828 243.142C142.971 242.761 141.207 242.017 139.637 240.953C138.067 239.889 136.723 238.526 135.68 236.942Z" fill="#FFC53E"/>
<path d="M155.05 240.122C152.51 241.792 149.47 242.53 146.447 242.211C143.425 241.891 140.606 240.533 138.472 238.368C136.338 236.204 135.021 233.366 134.744 230.339C134.467 227.312 135.249 224.283 136.955 221.768C138.661 219.252 141.187 217.406 144.101 216.543C147.016 215.681 150.14 215.856 152.94 217.038C155.74 218.22 158.044 220.337 159.459 223.027C160.874 225.717 161.312 228.815 160.7 231.792C160.352 233.484 159.674 235.09 158.704 236.519C157.735 237.949 156.493 239.173 155.05 240.122ZM141.05 218.822C142.371 221.451 144.681 223.447 147.474 224.373C150.266 225.3 153.312 225.079 155.942 223.761C158.572 222.443 160.571 220.134 161.5 217.343C162.429 214.551 162.212 211.505 160.896 208.874C159.58 206.242 157.274 204.241 154.483 203.309C151.693 202.377 148.647 202.592 146.014 203.905C143.381 205.218 141.377 207.522 140.443 210.312C139.508 213.101 139.719 216.148 141.03 218.782" fill="#FFA412"/>
<path d="M151.43 231.302C151.319 231.072 151.171 230.862 150.99 230.682C150.811 230.522 150.599 230.402 150.37 230.332C150.094 230.252 149.807 230.212 149.52 230.212C149.135 230.213 148.751 230.24 148.37 230.292C147.673 230.384 146.972 230.441 146.27 230.462C145.674 230.482 145.079 230.421 144.5 230.282C143.979 230.152 143.492 229.913 143.07 229.582C142.198 228.843 141.652 227.79 141.55 226.652C141.52 226.141 141.598 225.63 141.78 225.152C141.977 224.643 142.261 224.173 142.62 223.762C143.027 223.306 143.499 222.912 144.02 222.592L143.02 220.642L144.59 219.852L145.59 221.852C146.152 221.651 146.743 221.543 147.34 221.532C147.894 221.521 148.445 221.621 148.96 221.825C149.475 222.029 149.944 222.334 150.34 222.722C150.782 223.161 151.147 223.672 151.42 224.232L148.59 225.652C148.335 225.046 147.87 224.553 147.28 224.262C147.026 224.163 146.754 224.122 146.483 224.141C146.211 224.16 145.947 224.239 145.71 224.372C145.447 224.493 145.21 224.663 145.01 224.872C144.851 225.046 144.728 225.25 144.65 225.472C144.605 225.69 144.605 225.914 144.65 226.132C144.69 226.368 144.764 226.597 144.87 226.812C144.967 227.022 145.103 227.212 145.27 227.372C145.439 227.526 145.641 227.638 145.86 227.702C146.137 227.792 146.428 227.832 146.72 227.822C147.121 227.824 147.522 227.8 147.92 227.752C148.67 227.672 149.37 227.632 150.02 227.612C150.616 227.599 151.212 227.666 151.79 227.812C152.339 227.942 152.85 228.197 153.285 228.555C153.72 228.914 154.068 229.368 154.3 229.882C154.559 230.371 154.709 230.91 154.74 231.462C154.77 231.974 154.688 232.486 154.5 232.962C154.301 233.466 154.013 233.93 153.65 234.332C153.231 234.78 152.753 235.171 152.23 235.492L153.13 237.312L151.57 238.092L150.67 236.292C150.106 236.505 149.518 236.65 148.92 236.722C148.335 236.8 147.74 236.763 147.17 236.612C146.587 236.451 146.045 236.168 145.58 235.782C145.035 235.312 144.596 234.733 144.29 234.082L147.12 232.662C147.294 233.041 147.542 233.381 147.85 233.662C148.084 233.881 148.369 234.036 148.68 234.112C148.966 234.176 149.263 234.176 149.55 234.112C149.844 234.052 150.13 233.954 150.4 233.822C150.675 233.688 150.928 233.513 151.15 233.302C151.33 233.124 151.47 232.909 151.56 232.672C151.648 232.46 151.682 232.23 151.66 232.002C151.644 231.763 151.576 231.531 151.46 231.322" fill="#FFA412"/>
<path d="M162.56 263.642L162.27 268.062L161.2 284.472H141.2L140.06 268.302L139.74 263.842V263.642H162.56Z" fill="#1B404F"/>
<path d="M162.56 263.652L162.27 268.072C158.681 266.881 154.922 266.283 151.14 266.302C147.349 266.207 143.579 266.888 140.06 268.302L139.74 263.842L162.56 263.652Z" fill="#265365"/>
<path d="M163.25 265.972H138.99L138.72 263.152H163.56L163.25 265.972Z" fill="#1B404F"/>
<path d="M161.51 285.362H140.81L140.57 284.362H161.77L161.51 285.362Z" fill="#265365"/>
<path d="M95.5601 195.922C95.5601 195.802 96.2201 182.092 89.5601 178.922L90.0301 178.472C93.0301 179.532 96.4301 182.802 97.7701 187.422C98.7701 190.862 98.0101 191.612 98.0201 191.742L95.5601 195.922Z" fill="#0DD967"/>
<path d="M78.27 168.772C78.27 168.772 77.51 175.772 81.2 178.772C84.89 181.772 91.64 179.582 91.64 179.582C91.64 179.582 92.4 172.582 88.71 169.582C85.02 166.582 78.27 168.772 78.27 168.772Z" fill="#00BF90"/>
<path d="M94.4301 221.632C93.0405 209.902 94.2701 198.01 98.0301 186.812C101.56 176.503 102.45 165.474 100.62 154.732H104.94C105.05 155.352 105.35 169.732 100.75 189.452C96.6101 207.182 104.34 221.632 102.75 221.632H94.4301Z" fill="#0DD967"/>
<path d="M103.5 173.982C103.5 173.892 105.58 162.062 111.13 160.722C109.565 160.991 108.084 161.618 106.802 162.555C105.52 163.492 104.472 164.712 103.74 166.122C102.43 168.572 102.89 169.272 102.86 169.372L103.5 173.982Z" fill="#0DD967"/>
<path d="M81.3001 142.612C81.3001 142.612 75.3001 134.162 68.5201 131.682C68.5201 131.682 71.0601 151.492 67.3501 151.742C63.6401 151.992 66.1101 129.462 66.1101 129.462C66.1101 129.462 48.4101 119.632 41.2201 119.902C41.2201 119.902 51.4001 139.702 47.7401 139.022C44.0801 138.342 32.5301 118.242 32.5301 118.242C32.5301 118.242 14.0601 113.682 10.4101 124.572C6.76013 135.462 11.2801 141.282 14.0101 142.142C16.7401 143.002 34.5001 143.802 33.8701 146.082C33.2401 148.362 21.1101 151.302 14.5501 148.882C14.5501 148.882 20.8601 167.522 30.5501 167.172C40.2401 166.822 43.6401 160.992 49.6601 160.882C55.6801 160.772 59.9701 162.642 56.8801 164.082C53.7901 165.522 43.7001 163.842 38.6201 167.682C33.5401 171.522 29.4701 173.812 38.3501 176.192C47.2301 178.572 60.6401 175.882 67.0101 171.642C67.0101 171.642 72.2201 171.222 76.3101 195.252C77.8801 204.512 76.6701 218.252 76.6701 218.252L79.9701 217.752C80.9103 200.933 78.2193 184.108 72.0801 168.422C72.0801 168.422 88.5701 156.232 81.2801 142.612" fill="#00BF54"/>
<path d="M135.25 178.162C135.25 178.162 115.38 169.812 122.49 154.622C122.49 154.622 128.49 145.102 135.7 142.022C135.7 142.022 134.11 163.652 138.15 163.692C142.19 163.732 138.15 139.462 138.15 139.462C138.15 139.462 156.76 127.762 164.57 127.642C164.57 127.642 154.7 149.702 158.63 148.752C162.56 147.802 173.94 125.302 173.94 125.302C173.94 125.302 193.7 119.302 198.29 130.872C202.88 142.442 198.29 149.042 195.42 150.132C192.55 151.222 173.3 153.132 174.08 155.572C174.86 158.012 188.27 160.572 195.24 157.472C195.24 157.472 189.5 178.052 178.92 178.242C168.34 178.432 164.37 172.302 157.87 172.572C151.37 172.842 146.8 175.092 150.24 176.472C153.68 177.852 164.51 175.472 170.24 179.292C175.97 183.112 180.52 185.402 171.03 188.502C161.54 191.602 143.87 192.302 139.58 185.242L135.25 178.162Z" fill="#00BF90"/>
<path d="M189.49 135.672C189.49 135.672 139.08 158.542 135.24 178.162C135.785 184.556 134.783 190.987 132.32 196.912L132.74 200.652C132.74 200.652 136.74 187.322 139.58 185.242C139.58 185.242 126 170.122 189.49 135.672Z" fill="#0DD967"/>
<path d="M132.32 196.912C132.32 196.912 125.64 210.082 131.93 224.482L133.93 223.682C133.93 223.682 130.05 207.482 133.34 198.742C136.63 190.002 132.34 196.912 132.34 196.912" fill="#0DD967"/>
<path d="M59.47 87.7119C67.62 96.3719 63.38 113.592 63.38 113.592C63.38 113.592 45.94 116.752 37.79 108.082C29.64 99.4119 33.87 82.2019 33.87 82.2019C33.87 82.2019 51.32 79.0419 59.46 87.7119" fill="#0DD967"/>
<path d="M59.4701 87.7119C67.6201 96.3719 63.3801 113.592 63.3801 113.592L33.8701 82.2019C33.8701 82.2019 51.3101 79.0419 59.4601 87.7119" fill="#00BF54"/>
<path d="M164.52 120.722C160.27 125.642 150.66 124.322 150.66 124.322C150.66 124.322 147.95 115.012 152.2 110.092C156.45 105.172 166.06 106.492 166.06 106.492C166.06 106.492 168.77 115.802 164.52 120.722Z" fill="#0DD967"/>
<path d="M114.28 164.032C111.43 164.822 108.13 161.902 108.13 161.902C108.13 161.902 109.46 157.702 112.31 156.902C115.16 156.102 118.45 159.032 118.45 159.032C118.45 159.032 117.13 163.232 114.28 164.032Z" fill="#00BF90"/>
<path d="M63.97 71.6319C65.97 76.2619 61.71 82.4619 61.71 82.4619C61.71 82.4619 54.33 81.1519 52.38 76.5219C50.43 71.8919 54.6401 65.6919 54.6401 65.6919C54.6401 65.6919 62.01 67.0019 63.97 71.6319Z" fill="#0DD967"/>
<path d="M60.0602 116.212C58.9844 107.682 60.4623 99.024 64.3071 91.3337C68.152 83.6434 74.191 77.266 81.6604 73.0079C89.1299 68.7499 97.6943 66.8026 106.271 67.4122C114.847 68.0217 123.05 71.1609 129.842 76.4326C136.634 81.7043 141.71 88.8718 144.429 97.0286C147.147 105.185 147.386 113.965 145.114 122.258C142.842 130.55 138.163 137.982 131.667 143.615C125.171 149.248 117.151 152.828 108.62 153.902C97.1829 155.342 85.6418 152.181 76.5353 145.113C67.4288 138.045 61.5026 127.649 60.0602 116.212Z" fill="#E2810E"/>
<path d="M56.3 116.692C55.2245 108.162 56.7025 99.5047 60.5471 91.8148C64.3916 84.1249 70.4302 77.7477 77.8991 73.4897C85.368 69.2316 93.9318 67.2839 102.508 67.8929C111.083 68.5019 119.286 71.6402 126.078 76.9109C132.871 82.1816 137.947 89.3481 140.667 97.5041C143.386 105.66 143.626 114.439 141.356 122.732C139.086 131.024 134.408 138.457 127.913 144.091C121.419 149.724 113.4 153.306 104.87 154.382C99.2061 155.096 93.4568 154.688 87.9506 153.181C82.4443 151.674 77.2889 149.096 72.7787 145.597C68.2685 142.097 64.4919 137.743 61.6645 132.783C58.837 127.824 57.0142 122.356 56.3 116.692Z" fill="#FFC53E"/>
<path d="M104.44 151.062C95.3473 152.207 86.1387 150.164 78.3834 145.281C70.6282 140.398 64.8062 132.976 61.9096 124.282C59.013 115.587 59.2211 106.157 62.4983 97.5981C65.7755 89.0395 71.9191 81.8821 79.8822 77.3456C87.8452 72.8091 97.1349 71.1742 106.168 72.7196C115.202 74.265 123.42 78.8949 129.422 85.8205C135.424 92.746 138.839 101.539 139.085 110.7C139.331 119.861 136.392 128.824 130.77 136.062C124.328 144.354 114.858 149.749 104.44 151.062ZM94.87 74.8218C87.5621 75.742 80.6912 78.8087 75.1262 83.634C69.5612 88.4592 65.5522 94.8264 63.606 101.93C61.6598 109.034 61.8639 116.556 64.1926 123.543C66.5212 130.531 70.8697 136.672 76.6883 141.188C82.5068 145.704 89.5339 148.394 96.881 148.916C104.228 149.439 111.565 147.771 117.964 144.123C124.363 140.476 129.537 135.012 132.831 128.424C136.125 121.836 137.391 114.42 136.47 107.112C135.235 97.3137 130.158 88.4075 122.357 82.3521C114.555 76.2967 104.668 73.588 94.87 74.8218Z" fill="#FFA412"/>
<path d="M106.33 122.492C106.339 121.718 106.21 120.95 105.95 120.222C105.692 119.547 105.281 118.941 104.75 118.452C104.112 117.863 103.391 117.372 102.61 116.992C101.578 116.478 100.508 116.044 99.4101 115.692C97.4056 115.011 95.4365 114.23 93.5101 113.352C91.8719 112.615 90.3412 111.66 88.9601 110.512C87.7029 109.475 86.6803 108.183 85.9601 106.722C84.5756 103.545 84.5073 99.9488 85.7701 96.7217C86.3709 95.296 87.2634 94.0119 88.3901 92.9517C89.5897 91.8411 90.9782 90.9538 92.4901 90.3317C94.2082 89.6382 96.0227 89.2132 97.8701 89.0717V82.4917H103.17V89.1517C104.963 89.3537 106.709 89.8504 108.34 90.6217C109.853 91.3161 111.211 92.3079 112.333 93.538C113.455 94.768 114.318 96.2113 114.87 97.7817C115.489 99.5593 115.8 101.429 115.79 103.312L106.23 103.382C106.23 100.922 105.673 99.0884 104.56 97.8817C104.002 97.2789 103.319 96.8055 102.559 96.4945C101.799 96.1836 100.98 96.0427 100.16 96.0817C99.291 96.0682 98.4267 96.2139 97.6101 96.5117C96.9427 96.7601 96.3383 97.1528 95.8401 97.6617C95.3853 98.1552 95.044 98.7423 94.8401 99.3817C94.6172 100.066 94.5124 100.783 94.5301 101.502C94.5291 102.183 94.6441 102.859 94.8701 103.502C95.0919 104.181 95.4724 104.798 95.9801 105.302C96.6274 105.888 97.3546 106.38 98.1401 106.762C99.2256 107.292 100.341 107.76 101.48 108.162C103.62 108.942 105.57 109.748 107.33 110.582C108.966 111.309 110.493 112.258 111.87 113.402C113.172 114.492 114.209 115.865 114.902 117.415C115.595 118.966 115.926 120.654 115.87 122.352C115.91 124.018 115.6 125.673 114.96 127.212C114.354 128.631 113.454 129.905 112.32 130.952C111.109 132.045 109.71 132.909 108.19 133.502C106.459 134.175 104.641 134.599 102.79 134.762V140.872H97.5301V134.792C95.719 134.626 93.9353 134.236 92.2201 133.632C90.5474 133.05 88.9976 132.161 87.6501 131.012C86.2792 129.808 85.1872 128.32 84.4501 126.652C83.5912 124.661 83.1684 122.509 83.2101 120.342L92.8001 120.302C92.771 121.542 92.9885 122.776 93.4401 123.932C93.7921 124.843 94.358 125.655 95.0901 126.302C95.7708 126.873 96.5701 127.287 97.4301 127.512C98.2979 127.741 99.1926 127.852 100.09 127.842C101.017 127.853 101.939 127.711 102.82 127.422C103.557 127.191 104.238 126.81 104.82 126.302C105.337 125.839 105.74 125.264 106 124.622C106.261 123.949 106.391 123.233 106.38 122.512" fill="#FFA412"/>
<path d="M137.87 217.432L137 231.302L133.78 282.622H73.6201L70.0801 232.002L69.0801 218.052V217.442L137.87 217.432Z" fill="#1B404F"/>
<path d="M137.87 217.472L137.01 230.782C126.194 227.189 114.867 225.375 103.47 225.412C82.7501 225.412 70.0901 231.412 70.0901 231.412L69.0901 217.972L137.87 217.472Z" fill="#265365"/>
<path d="M139.95 224.472H66.87L66.03 215.972H140.87L139.95 224.472Z" fill="#1B404F"/>
<path d="M134.7 285.352H72.3201L71.6101 282.302H135.5L134.7 285.352Z" fill="#265365"/>
<path d="M50.2101 193.002C48.8701 194.822 50.0501 198.002 50.0501 198.002C50.0501 198.002 53.4201 198.202 54.7601 196.382C56.1001 194.562 54.9201 191.382 54.9201 191.382C54.9201 191.382 51.5501 191.182 50.2101 192.992" fill="#4DC89B"/>
<path d="M41.73 257.812C41.1001 252.537 41.6501 247.188 43.34 242.152C44.9288 237.515 45.3311 232.554 44.51 227.722H46.45C46.4672 232.973 45.8358 238.206 44.57 243.302C42.71 251.302 46.18 257.772 45.44 257.772L41.73 257.812Z" fill="#00BF90"/>
<path d="M45.81 236.382C45.81 236.382 46.74 231.022 49.24 230.382C48.526 230.503 47.8499 230.788 47.265 231.215C46.6802 231.641 46.2026 232.199 45.87 232.842C45.29 233.952 45.49 234.262 45.48 234.302L45.81 236.382Z" fill="#00BF90"/>
<path d="M41.2 235.132C41.2 235.132 38.76 231.132 35.78 229.862C35.78 229.862 36.34 238.862 34.67 238.862C33 238.862 34.76 228.862 34.76 228.862C34.76 228.862 27.1 223.942 23.86 223.862C23.86 223.862 27.86 233.042 26.23 232.632C24.6 232.222 20.01 222.862 20.01 222.862C20.01 222.862 11.87 220.202 9.87001 224.982C7.87001 229.762 9.78001 232.502 10.98 232.982C12.18 233.462 20.16 234.302 19.87 235.302C19.58 236.302 13.97 237.302 11.1 236.002C11.1 236.002 13.39 244.552 17.77 244.682C22.15 244.812 23.77 242.282 26.53 242.412C29.29 242.542 31.1 243.502 29.68 244.052C28.26 244.602 23.77 243.562 21.38 245.142C18.99 246.722 17.09 247.632 21.01 248.952C25.3488 250.114 29.9601 249.685 34.01 247.742C34.01 247.742 36.36 247.742 37.5 258.602C37.6889 262.057 37.5214 265.522 37 268.942L38.5 268.812C39.4003 261.29 38.6774 253.661 36.38 246.442C36.38 246.442 44.14 241.442 41.26 235.122" fill="#0DD967"/>
<path d="M50.6601 231.902C49.3701 232.262 47.8901 230.952 47.8901 230.952C47.8901 230.952 48.4901 229.052 49.7701 228.702C51.0501 228.352 52.5301 229.702 52.5301 229.702C52.5301 229.702 51.9401 231.592 50.6601 231.942" fill="#00BF90"/>
<path d="M65.4 203.002C60.92 205.942 60.96 213.902 60.96 213.902C60.96 213.902 68.26 217.132 72.73 214.192C77.2 211.252 77.17 203.302 77.17 203.302C77.17 203.302 69.88 200.082 65.4 203.012" fill="#00BF90"/>
<path d="M65.4 203.002C60.92 205.942 60.96 213.902 60.96 213.902L77.17 203.302C77.17 203.302 69.88 200.082 65.4 203.012" fill="#0DD967"/>
<path d="M26.27 210.392C25.7182 205.906 26.7383 201.368 29.1566 197.55C31.5749 193.732 35.2419 190.87 39.5331 189.453C43.8242 188.035 48.4743 188.148 52.6913 189.773C56.9083 191.399 60.4315 194.436 62.6609 198.367C64.8903 202.298 65.6881 206.881 64.9183 211.334C64.1486 215.787 61.8589 219.836 58.4392 222.791C55.0196 225.746 50.6814 227.424 46.1635 227.539C41.6456 227.655 37.2273 226.201 33.661 223.425C31.6326 221.845 29.9357 219.881 28.6675 217.644C27.3992 215.408 26.5845 212.943 26.27 210.392Z" fill="#E2810E"/>
<path d="M24.58 210.612C24.0961 206.776 24.7607 202.882 26.4897 199.423C28.2188 195.965 30.9347 193.096 34.2939 191.181C37.6531 189.266 41.5047 188.39 45.3618 188.664C49.2188 188.938 52.908 190.35 55.9627 192.721C59.0174 195.092 61.3004 198.315 62.5232 201.983C63.7459 205.652 63.8533 209.6 62.8318 213.33C61.8104 217.059 59.7059 220.402 56.7846 222.935C53.8633 225.468 50.2564 227.079 46.42 227.562C41.2762 228.21 36.0856 226.788 31.9899 223.61C27.8942 220.431 25.2288 215.756 24.58 210.612Z" fill="#FFC53E"/>
<path d="M46.2301 226.072C46.2327 228.153 47.0616 230.148 48.5346 231.618C50.0075 233.088 52.004 233.913 54.0851 233.912C56.1662 233.911 58.1616 233.083 59.6326 231.611C61.1037 230.139 61.9301 228.143 61.9301 226.062C61.9301 223.981 61.1037 221.985 59.6326 220.513C58.1616 219.041 56.1662 218.213 54.0851 218.212C52.004 218.211 50.0075 219.036 48.5346 220.506C47.0616 221.976 46.2327 223.971 46.2301 226.052M41.8701 191.782C38.5858 192.203 35.5 193.589 33.0027 195.763C30.5054 197.937 28.7085 200.803 27.8391 203.998C26.9697 207.193 27.0668 210.574 28.1182 213.714C29.1695 216.854 31.1279 219.612 33.7459 221.639C36.3639 223.666 39.524 224.872 42.8271 225.105C46.1302 225.337 49.428 224.585 52.3038 222.943C55.1797 221.302 57.5045 218.845 58.9847 215.883C60.4649 212.921 61.034 209.587 60.6201 206.302C60.3435 204.117 59.6389 202.008 58.5466 200.095C57.4544 198.183 55.9959 196.504 54.2545 195.156C52.5132 193.807 50.5231 192.815 48.3981 192.236C46.2731 191.657 44.0548 191.503 41.8701 191.782Z" fill="#FFA412"/>
<path d="M47.08 213.222C47.0823 212.881 47.0248 212.543 46.91 212.222C46.7946 211.917 46.6097 211.643 46.37 211.422C46.0726 211.152 45.7353 210.929 45.37 210.762C44.9041 210.535 44.423 210.341 43.93 210.182C43.02 209.872 42.14 209.522 41.27 209.132C40.5481 208.799 39.8751 208.368 39.27 207.852C38.7163 207.383 38.2667 206.804 37.95 206.152C37.331 204.729 37.2986 203.119 37.86 201.672C38.1283 201.031 38.5306 200.455 39.04 199.982C39.5735 199.476 40.1933 199.069 40.87 198.782C41.6414 198.461 42.4577 198.262 43.29 198.192V195.192H45.67V198.192C46.4738 198.286 47.2572 198.508 47.99 198.852C48.6626 199.177 49.2637 199.632 49.7582 200.192C50.2527 200.752 50.6307 201.404 50.87 202.112C51.1413 202.914 51.2798 203.755 51.28 204.602H46.98C47.0389 203.71 46.7684 202.828 46.22 202.122C45.9678 201.847 45.6572 201.633 45.311 201.494C44.9648 201.356 44.592 201.297 44.22 201.322C43.8273 201.313 43.4366 201.381 43.07 201.522C42.7693 201.631 42.4962 201.805 42.27 202.032C42.0656 202.253 41.912 202.515 41.82 202.802C41.7138 203.124 41.6664 203.463 41.68 203.802C41.6803 204.115 41.7309 204.425 41.83 204.722C41.9419 205.012 42.1199 205.272 42.35 205.482C42.6483 205.751 42.9854 205.973 43.35 206.142C43.8374 206.381 44.3382 206.591 44.85 206.772C45.85 207.122 46.69 207.492 47.49 207.862C48.2095 208.204 48.8817 208.638 49.49 209.152C50.0762 209.637 50.5439 210.249 50.8575 210.943C51.1712 211.636 51.3225 212.391 51.3 213.152C51.3202 213.899 51.1804 214.643 50.89 215.332C50.6171 215.967 50.2153 216.54 49.71 217.012C49.1671 217.508 48.5363 217.898 47.85 218.162C47.0709 218.465 46.2528 218.657 45.42 218.732V221.482H43.05V218.742C42.235 218.668 41.4322 218.493 40.66 218.222C39.9257 217.957 39.2474 217.556 38.66 217.042C38.0367 216.491 37.5447 215.808 37.22 215.042C36.8317 214.146 36.6407 213.178 36.66 212.202H40.96C40.9504 212.759 41.0489 213.312 41.25 213.832C41.4206 214.215 41.6732 214.557 41.99 214.832C42.3008 215.085 42.6622 215.27 43.05 215.372C43.4388 215.472 43.8386 215.522 44.24 215.522C44.6578 215.529 45.0738 215.465 45.47 215.332C45.7953 215.229 46.0952 215.059 46.35 214.832C46.5809 214.625 46.762 214.369 46.88 214.082C46.9999 213.78 47.0577 213.457 47.05 213.132" fill="#FFA412"/>
<path d="M61.2601 255.922L60.8701 261.922L59.4201 284.152H32.3601L30.7701 262.232L30.3301 256.232V255.962L61.2601 255.922Z" fill="#1B404F"/>
<path d="M61.2601 255.942L60.8701 261.942C56.0074 260.325 50.9146 259.508 45.7901 259.522C36.4701 259.522 30.7901 262.242 30.7901 262.242L30.3601 256.242L61.2601 255.942Z" fill="#265365"/>
<path d="M62.2 259.092H29.34L28.96 255.302H62.63L62.2 259.092Z" fill="#1B404F"/>
<path d="M59.87 285.352H31.87L31.55 284.022H60.2001L59.87 285.352Z" fill="#265365"/>
<path d="M151.73 170.542C151.73 170.542 148.64 169.942 147.93 170.542C147.22 171.142 143.87 174.542 144.59 175.672C145.31 176.802 148.75 174.742 149.46 174.552C150.17 174.362 152.18 173.552 152.18 173.552L151.73 170.542Z" fill="#FFB27D"/>
<path d="M184.56 279.792L187.88 281.022C187.88 281.022 202.27 261.072 204.04 243.512C204.395 240.507 204.232 237.463 203.56 234.512L203.95 232.282C204.06 231.622 204.2 230.822 204.36 229.912C204.83 227.232 205.48 223.562 206.21 219.392C207.9 209.782 210.1 197.492 211.8 188.462L210.91 188.182L201.25 185.062L199.25 178.722L192.06 176.832C192.06 176.832 190.46 179.972 189.06 194.832C188.79 196.772 188.55 198.922 188.37 201.252C187.71 209.919 187.941 218.632 189.06 227.252C189.387 229.832 189.807 232.499 190.32 235.252C190.703 237.86 190.797 240.503 190.6 243.132C189.87 257.482 184.6 279.792 184.6 279.792" fill="#163744"/>
<path d="M188.33 201.302L203.95 232.302C204.06 231.642 204.2 230.842 204.36 229.932C204.83 227.252 205.48 223.582 206.21 219.412C207.9 209.802 210.1 197.512 211.8 188.482L210.91 188.202L201.25 185.082L199.25 178.742L192.06 176.852C192.06 176.852 190.45 179.992 189.06 194.852C188.79 196.792 188.55 198.942 188.37 201.272" fill="#163744"/>
<path d="M195.2 180.842L195.57 177.742C201.62 179.352 217.8 173.252 217.8 173.252C217.8 173.252 223.67 178.412 222.9 190.772C222.53 196.772 221.84 222.442 221.12 230.032C220.86 232.782 220.64 234.742 220.54 235.522C220.528 235.762 220.591 235.999 220.72 236.202C221.761 237.976 222.648 239.836 223.37 241.762C230.37 260.522 222.28 283.632 222.28 283.632L220.18 282.782C220.18 282.782 215.55 257.072 211.8 245.712C211.349 244.203 210.743 242.745 209.99 241.362C208.35 238.732 206.84 234.422 205.46 229.302C202.86 219.612 200.77 207.012 199.37 197.302C199.18 197.302 195.21 180.862 195.21 180.862" fill="#1B404F"/>
<path d="M151.73 170.542L152.18 173.542H152.73C153.83 173.462 156.52 173.312 159.55 172.992C164.11 172.542 169.55 171.732 171.68 170.412C174.97 168.412 180.35 162.262 183.86 156.122C183.96 155.972 184.04 155.822 184.12 155.672C185.95 152.412 187.22 149.172 187.32 146.592C187.4 145.209 187.258 143.821 186.9 142.482C186.532 141.135 185.9 139.873 185.04 138.772C184.946 138.612 184.828 138.467 184.69 138.342C184.022 137.539 183.216 136.862 182.31 136.342C181.71 136.092 181.06 136.342 180.38 137.122C179.692 137.891 179.11 138.749 178.65 139.672C178.65 139.672 178.6 139.722 178.6 139.752L178.2 140.502C178.155 140.555 178.121 140.616 178.1 140.682C177.83 141.252 177.55 141.852 177.27 142.482C174.19 149.192 170.91 159.382 168.17 162.402C167 163.702 161.61 166.262 157.32 168.172C154.24 169.522 151.73 170.532 151.73 170.532" fill="#FFB27D"/>
<path d="M183.63 143.302C185.838 144.288 188.214 144.842 190.63 144.932C201.04 145.502 203.4 136.372 203.83 130.312C202.684 129.918 201.468 129.765 200.26 129.862C199.543 129.884 198.829 129.951 198.12 130.062C196.84 129.392 194.55 126.162 193.23 120.762L192.78 120.972L185.27 124.502C185.27 124.502 186.07 126.942 186.66 129.282C187.12 131.112 187.45 132.882 187.17 133.372C186.58 133.612 186.23 133.772 186.23 133.772C185.064 136.859 184.197 140.05 183.64 143.302" fill="#FFB27D"/>
<path d="M181.03 150.082C181.11 150.282 181.19 150.492 181.29 150.702C183.93 156.372 188.81 179.902 188.81 179.902C188.11 184.132 220.59 179.072 220.68 175.212C221.82 171.132 216.62 164.572 213.68 161.282C212.39 159.826 211.583 158.006 211.37 156.072C211.003 151.519 210.867 146.95 210.96 142.382L209.32 141.192C208.603 140.703 207.933 140.147 207.32 139.532C206.766 139.046 206.41 138.374 206.32 137.642C206.275 137.116 206.275 136.588 206.32 136.062C206.334 135.807 206.368 135.553 206.42 135.302C206.715 133.58 207.222 131.9 207.93 130.302C205.14 129.172 200.17 129.842 200.17 129.842V130.572C200.17 132.382 200.17 137.042 199.58 137.922C198.86 139.022 185.58 143.832 184.85 142.342C184.12 140.852 186.05 134.012 186.12 133.752C181.66 135.502 180.07 136.972 180.07 136.972C182.76 138.712 178.87 144.602 180.94 150.112" fill="#098AD3"/>
<path d="M189.99 101.002C189.99 100.552 190.36 95.6921 197.77 95.4321C197.77 95.4321 194.12 95.8721 193.5 97.4321C193.5 97.4321 195.98 95.4321 198 96.0921C200.02 96.7521 201.2 100.262 201.21 101.432C201.22 102.602 200.1 106.342 198.82 106.662C198.309 106.772 197.781 106.772 197.27 106.662C197.636 107.236 197.97 107.831 198.27 108.442C201.22 114.512 198.18 120.442 195.67 119.782C194.07 119.362 193.61 122.102 193.61 122.102L178.02 109.522C178.02 109.522 183.74 97.6721 190.02 101.002" fill="#2C3A64"/>
<path d="M185.25 124.452C185.25 124.452 186.05 126.892 186.64 129.232C191.03 128.012 192.36 123.392 192.76 120.912L185.25 124.452Z" fill="#ED985F"/>
<path d="M184.33 127.032C184.33 127.032 194.83 124.602 193.22 118.032C191.61 111.462 191.87 106.812 185.09 108.032C178.31 109.252 177.64 112.122 177.65 114.432C177.66 116.742 181.55 127.432 184.33 126.932" fill="#FFB27D"/>
<path d="M177.06 110.832C178.19 108.462 179.51 108.592 180.35 109.012C181.609 107.726 183.287 106.935 185.079 106.781C186.872 106.626 188.66 107.12 190.12 108.172C191.292 110.906 193.377 113.147 196.02 114.512C196.02 114.512 194.41 116.172 189.73 116.132C188.216 116.031 186.765 115.484 185.56 114.562C187.193 116.167 189.036 117.543 191.04 118.652C185.18 117.522 181.26 110.752 180.85 110.032C180.07 111.097 179.549 112.33 179.33 113.632C179.22 115.422 179.83 118.902 178.81 119.032C178.81 119.032 175.36 114.372 177.05 110.832" fill="#2C3A64"/>
<path d="M180.15 136.932C180.15 136.932 177.62 141.342 177.25 142.482C177.25 142.482 180.53 142.352 181.85 144.882C181.85 144.882 182.17 137.532 180.15 136.882" fill="#33AFF5"/>
<path d="M197.55 172.002C203.96 171.932 209.39 165.282 212.7 160.002C211.972 158.821 211.518 157.492 211.37 156.112C211.004 151.562 210.867 146.996 210.96 142.432C210.39 142.002 209.84 141.612 209.32 141.242C208.607 140.747 207.938 140.192 207.32 139.582C202.07 148.452 188.87 172.132 197.55 172.042" fill="#33AFF5"/>
<path d="M173.34 175.482L174.21 178.692L177.07 178.162L177.9 177.992C179.3 177.712 180.98 177.342 182.81 176.932C185.94 176.182 189.45 175.282 192.41 174.282C194.189 173.704 195.902 172.94 197.52 172.002C197.64 171.922 197.76 171.842 197.87 171.752C200.81 169.622 204.29 163.352 207 156.632C207.37 155.702 207.72 154.772 208.08 153.872C209.259 150.772 210.212 147.59 210.93 144.352C211.286 142.861 211.514 141.342 211.61 139.812C211.61 139.382 211.61 138.962 211.61 138.532C211.62 131.302 208.01 130.302 208.01 130.302L207.75 130.222C207.13 130.122 206.48 130.552 205.8 131.382C204.719 132.845 203.819 134.433 203.12 136.112C201.69 139.352 200.18 143.532 198.78 147.702C198 149.982 197.25 152.262 196.5 154.362C196.07 155.642 195.65 156.852 195.25 157.952C194.671 159.633 193.966 161.268 193.14 162.842C192.277 163.936 191.236 164.875 190.06 165.622C186.858 167.847 183.543 169.907 180.13 171.792C178.73 172.592 177.4 173.312 176.3 173.922L173.3 175.522" fill="#FFB27D"/>
<path d="M203.13 136.082C207.95 134.752 211.67 138.522 211.67 138.522C211.61 131.302 208 130.302 208 130.302C206.55 129.702 204.86 132.222 203.13 136.112" fill="#33AFF5"/>
<path d="M210.02 285.352H226.7C226.92 283.846 226.759 282.309 226.23 280.882C225.4 279.032 224.09 278.192 224.4 275.952C223.76 276.681 222.952 277.244 222.046 277.592C221.141 277.941 220.164 278.064 219.2 277.952C218.401 279.321 217.43 280.581 216.31 281.702C215.22 282.482 210.31 282.202 210.02 285.362" fill="#098AD3"/>
<path d="M174.2 285.352H190.87C191.209 283.851 191.044 282.28 190.4 280.882C189.4 279.282 189.8 278.362 190.52 277.042C189.633 277.421 188.674 277.602 187.71 277.572C186.829 277.471 185.982 277.174 185.23 276.702C183.74 278.458 182.151 280.127 180.47 281.702C179.38 282.482 174.47 282.202 174.19 285.362" fill="#098AD3"/>
<path d="M172.34 190.352L168.34 180.682C168.09 180.078 167.628 179.585 167.041 179.298C166.453 179.011 165.781 178.948 165.15 179.122C163.926 176.771 162.152 174.751 159.98 173.232C157.936 171.769 155.493 170.967 152.98 170.932C151.704 170.941 150.442 171.192 149.26 171.672C143.62 173.982 141.09 181.102 143.16 188.102L142.85 188.222C142.85 188.222 141.85 188.162 140.27 188.162C135.17 188.162 123.56 188.842 115.42 194.492C115.154 194.803 114.979 195.182 114.916 195.586C114.852 195.99 114.902 196.405 115.06 196.782C115.06 196.782 128.13 188.322 140.22 197.012C140.96 197.552 141.68 198.012 142.38 198.502L143.47 201.142C144.341 203.256 146.014 204.938 148.122 205.821C150.231 206.704 152.603 206.715 154.72 205.852L165.87 201.302L168.17 200.362C170.046 199.584 171.539 198.098 172.326 196.226C173.112 194.353 173.128 192.246 172.37 190.362M150.87 182.512L146.36 184.362C145.773 184.605 145.294 185.051 145.009 185.618C144.724 186.186 144.654 186.837 144.81 187.452L144.32 187.652C142.49 181.272 144.72 174.852 149.76 172.782C150.456 172.501 151.186 172.31 151.93 172.212C154.354 171.952 156.793 172.543 158.83 173.882C161.031 175.296 162.832 177.252 164.06 179.562L163.39 179.832C163.069 179.285 162.562 178.872 161.962 178.668C161.361 178.465 160.708 178.484 160.12 178.722L155.61 180.572C155.384 180.028 154.953 179.596 154.41 179.367C153.868 179.139 153.257 179.134 152.71 179.352L152.09 179.612C151.545 179.836 151.11 180.267 150.881 180.81C150.653 181.354 150.649 181.966 150.87 182.512Z" fill="#EF5830"/>
<path d="M142.44 198.492C141.74 198.042 141.02 197.542 140.28 197.012C128.19 188.312 115.12 196.782 115.12 196.782C114.994 196.492 114.936 196.178 114.95 195.862C120.031 192.563 126.128 191.201 132.13 192.022C142.13 193.632 143.89 195.022 142.44 198.492Z" fill="#E14921"/>
<path d="M168.15 200.362L165.87 201.302C169.33 199.412 165.05 191.432 162.54 186.172C160.03 180.912 156.24 183.312 156.24 183.312C155.989 182.805 155.599 182.378 155.116 182.083C154.633 181.787 154.076 181.634 153.51 181.642C153.513 181.205 153.379 180.777 153.129 180.419C152.878 180.061 152.522 179.789 152.11 179.642L152.74 179.392C153.285 179.17 153.896 179.173 154.439 179.4C154.983 179.626 155.414 180.059 155.64 180.602L160.15 178.752C160.737 178.514 161.391 178.495 161.992 178.698C162.592 178.902 163.099 179.315 163.42 179.862L164.09 179.592C162.862 177.285 161.061 175.332 158.86 173.922C156.823 172.583 154.384 171.993 151.96 172.252C152.399 171.894 152.771 171.46 153.06 170.972C155.573 171.007 158.016 171.809 160.06 173.272C162.23 174.794 164.003 176.813 165.23 179.162C165.86 178.988 166.533 179.051 167.12 179.338C167.708 179.625 168.17 180.118 168.42 180.722L172.42 190.392C173.181 192.275 173.168 194.382 172.383 196.255C171.599 198.128 170.106 199.615 168.23 200.392" fill="#E14921"/>
<path d="M162.96 178.592C164.56 179.262 166.82 181.592 170.43 180.192C172.599 179.387 174.817 178.719 177.07 178.192C177.6 178.092 177.9 178.012 177.9 178.012L176.47 173.852C176.414 173.861 176.356 173.861 176.3 173.852C175.37 174.052 170.66 175.052 168.45 174.552C165.97 173.982 161.81 176.962 161.81 176.962C161.81 176.962 161.36 177.912 162.96 178.562" fill="#FFB27D"/>
<path d="M117.67 203.762C117.67 202.262 114.94 197.612 114.94 197.612C114.94 197.612 112.22 202.262 112.22 203.762C112.198 204.134 112.251 204.506 112.378 204.857C112.505 205.207 112.702 205.527 112.957 205.799C113.212 206.07 113.52 206.286 113.862 206.434C114.204 206.581 114.573 206.657 114.945 206.657C115.318 206.657 115.686 206.581 116.028 206.434C116.37 206.286 116.678 206.07 116.933 205.799C117.188 205.527 117.385 205.207 117.512 204.857C117.639 204.506 117.693 204.134 117.67 203.762Z" fill="#098AD3"/>
</svg>
