<svg width="20" height="20" viewBox="0 0 20 20" fill="none" xmlns="http://www.w3.org/2000/svg">
<path d="M9.929 3.00008C7.96373 2.99104 6.07531 3.76288 4.679 5.14588C3.28269 6.52888 2.49279 8.40981 2.483 10.3751H0L3.219 13.5631L3.277 13.6781L6.62 10.3781H4.137C4.1251 9.03615 4.57955 7.73172 5.42271 6.68769C6.26586 5.64365 7.44538 4.92479 8.75975 4.65393C10.0741 4.38307 11.4418 4.57703 12.629 5.20265C13.8162 5.82828 14.7494 6.84676 15.269 8.08406C15.7886 9.32136 15.8624 10.7007 15.4779 11.9864C15.0933 13.2721 14.2743 14.3844 13.1606 15.1332C12.047 15.882 10.7079 16.2209 9.37211 16.0919C8.03634 15.9629 6.7868 15.3741 5.837 14.4261L4.666 15.5871C5.70625 16.6193 7.02759 17.3221 8.46496 17.6078C9.90233 17.8934 11.392 17.7492 12.7479 17.1932C14.1038 16.6371 15.2658 15.6939 16.0887 14.4813C16.9116 13.2687 17.359 11.8405 17.375 10.3751C17.3652 8.40981 16.5753 6.52888 15.179 5.14588C13.7827 3.76288 11.8943 2.99104 9.929 3.00008ZM9.1 7.10008V11.2001L12.641 13.2811L13.241 12.2891L10.341 10.5891V7.10008H9.1Z" fill="#10284A"/>
</svg>
