<svg width="17" height="11" viewBox="0 0 17 11" fill="none" xmlns="http://www.w3.org/2000/svg">
<path d="M16.5625 4.06V9.65C16.5612 9.79268 16.5317 9.93369 16.4755 10.0649C16.4194 10.1961 16.3379 10.3149 16.2356 10.4143C16.1333 10.5138 16.0123 10.5921 15.8796 10.6445C15.7469 10.697 15.6052 10.7226 15.4625 10.72H1.12251C0.844631 10.7309 0.57359 10.6322 0.36782 10.4452C0.16205 10.2581 0.0380329 9.99766 0.0225067 9.72V4.09C0.0225067 4.04 0.132507 4.04 0.192507 4.03H16.1925C16.3325 4 16.4625 3.97 16.5625 4.06Z" fill="#FECC3C"/>
<path d="M16.5625 4.06009H0.0225067V1.74009C0.0473425 1.71963 0.0761959 1.70461 0.107202 1.69599C0.138207 1.68738 0.170675 1.68537 0.202507 1.69009H16.2025C16.3256 1.67977 16.4494 1.70039 16.5625 1.75009V4.06009Z" fill="#0D1B5E"/>
<path d="M16.5625 1.75H0.0225063C-0.00750209 1.45075 -0.00750209 1.14925 0.0225063 0.85C0.0695122 0.616599 0.193726 0.405819 0.375135 0.251622C0.556543 0.0974247 0.784581 0.00879031 1.02251 0H15.5125C15.7903 0.00767323 16.0544 0.12212 16.25 0.319541C16.4455 0.516962 16.5575 0.782164 16.5625 1.06C16.5725 1.28 16.5625 1.51 16.5625 1.75Z" fill="#FECC3C"/>
<path d="M4.87251 5H7.96251C8.21251 5 8.29251 5.08 8.29251 5.34V6.09C8.29741 6.12793 8.29355 6.16649 8.28121 6.2027C8.26888 6.2389 8.2484 6.27179 8.22135 6.29884C8.1943 6.32589 8.16141 6.34637 8.1252 6.35871C8.089 6.37104 8.05044 6.37491 8.01251 6.37H1.73251C1.53251 6.37 1.45251 6.29 1.45251 6.08V5.34C1.45251 5.11 1.52251 5.03 1.75251 5.03L4.87251 5Z" fill="#FBE9C2"/>
<path d="M13.4825 8.54H14.4825C14.5441 8.53724 14.6056 8.54718 14.6632 8.56919C14.7208 8.5912 14.7733 8.62481 14.8174 8.66795C14.8615 8.71108 14.8962 8.76282 14.9194 8.81994C14.9427 8.87706 14.9539 8.93835 14.9525 9C14.9792 9.15687 14.9547 9.31818 14.8825 9.46C14.846 9.5233 14.7935 9.57598 14.7304 9.61281C14.6673 9.64964 14.5956 9.66935 14.5225 9.67H12.5225C12.4325 9.66947 12.345 9.64002 12.273 9.58601C12.201 9.53199 12.1482 9.45627 12.1225 9.37C12.0777 9.20974 12.0777 9.04026 12.1225 8.88C12.1451 8.78304 12.2 8.69661 12.2781 8.63486C12.3562 8.5731 12.4529 8.53966 12.5525 8.54H13.4825Z" fill="#FBE9C2"/>
</svg>
